<svg width="375" height="812" viewBox="0 0 375 812" fill="none" xmlns="http://www.w3.org/2000/svg">
<rect width="375" height="352" fill="#5F8FC3"/>
<rect y="330" width="375" height="47" rx="23.5" fill="white"/>
<rect x="10" y="365" width="170" height="260" rx="25" fill="#EFEFEF"/>
<rect x="190" y="515" width="170" height="260" rx="25" fill="#EFEFEF"/>
<rect x="190" y="365" width="170" height="130" rx="25" fill="#EFEFEF"/>
<rect x="10" y="645" width="170" height="130" rx="25" fill="#EFEFEF"/>
<rect x="10" y="795" width="350" height="130" rx="25" fill="#EFEFEF"/>
<rect x="190" y="365" width="170" height="130" rx="25" fill="#EFEFEF"/>
<path d="M111.519 484.087H106.954L104.433 480.283C103.482 478.856 101.818 478 100.106 478H89.644C87.9321 478 86.2677 478.856 85.3166 480.283L82.7962 484.087H78.231C75.3302 484.087 73 486.417 73 489.318V507.769C73 510.67 75.3302 513 78.231 513H111.519C114.42 513 116.75 510.67 116.75 507.769V489.318C116.75 486.417 114.42 484.087 111.519 484.087ZM94.875 508.72C88.3601 508.72 83.0815 503.442 83.0815 496.927C83.0815 490.412 88.3601 485.181 94.875 485.181C101.39 485.181 106.668 490.459 106.668 496.974C106.668 503.442 101.39 508.72 94.875 508.72ZM110.853 491.458C110.806 491.458 110.758 491.458 110.663 491.458H108.761C107.905 491.41 107.239 490.697 107.287 489.841C107.334 489.033 107.952 488.414 108.761 488.367H110.663C111.519 488.319 112.232 488.985 112.28 489.841C112.327 490.697 111.709 491.41 110.853 491.458Z" fill="white"/>
<path d="M94.875 490.412C91.2609 490.412 88.3125 493.36 88.3125 496.974C88.3125 500.588 91.2609 503.489 94.875 503.489C98.4891 503.489 101.437 500.541 101.437 496.927C101.437 493.312 98.4891 490.412 94.875 490.412Z" fill="white"/>
<path d="M291.519 419.087H286.954L284.433 415.283C283.482 413.856 281.818 413 280.106 413H269.644C267.932 413 266.268 413.856 265.317 415.283L262.796 419.087H258.231C255.33 419.087 253 421.417 253 424.318V442.769C253 445.67 255.33 448 258.231 448H291.519C294.42 448 296.75 445.67 296.75 442.769V424.318C296.75 421.417 294.42 419.087 291.519 419.087ZM274.875 443.72C268.36 443.72 263.082 438.442 263.082 431.927C263.082 425.412 268.36 420.181 274.875 420.181C281.39 420.181 286.668 425.459 286.668 431.974C286.668 438.442 281.39 443.72 274.875 443.72ZM290.853 426.458C290.806 426.458 290.758 426.458 290.663 426.458H288.761C287.905 426.41 287.239 425.697 287.287 424.841C287.334 424.033 287.952 423.414 288.761 423.367H290.663C291.519 423.319 292.232 423.985 292.28 424.841C292.327 425.697 291.709 426.41 290.853 426.458Z" fill="white"/>
<path d="M274.875 425.412C271.261 425.412 268.312 428.36 268.312 431.974C268.312 435.588 271.261 438.489 274.875 438.489C278.489 438.489 281.437 435.541 281.437 431.927C281.437 428.312 278.489 425.412 274.875 425.412Z" fill="white"/>
<path d="M291.519 633.087H286.954L284.433 629.283C283.482 627.856 281.818 627 280.106 627H269.644C267.932 627 266.268 627.856 265.317 629.283L262.796 633.087H258.231C255.33 633.087 253 635.417 253 638.318V656.769C253 659.67 255.33 662 258.231 662H291.519C294.42 662 296.75 659.67 296.75 656.769V638.318C296.75 635.417 294.42 633.087 291.519 633.087ZM274.875 657.72C268.36 657.72 263.082 652.442 263.082 645.927C263.082 639.412 268.36 634.181 274.875 634.181C281.39 634.181 286.668 639.459 286.668 645.974C286.668 652.442 281.39 657.72 274.875 657.72ZM290.853 640.458C290.806 640.458 290.758 640.458 290.663 640.458H288.761C287.905 640.41 287.239 639.697 287.287 638.841C287.334 638.033 287.952 637.414 288.761 637.367H290.663C291.519 637.319 292.232 637.985 292.28 638.841C292.327 639.697 291.709 640.41 290.853 640.458Z" fill="white"/>
<path d="M274.875 639.412C271.261 639.412 268.312 642.36 268.312 645.974C268.312 649.588 271.261 652.489 274.875 652.489C278.489 652.489 281.437 649.541 281.437 645.927C281.437 642.312 278.489 639.412 274.875 639.412Z" fill="white"/>
<path d="M111.519 698.087H106.954L104.433 694.283C103.482 692.856 101.818 692 100.106 692H89.644C87.9321 692 86.2677 692.856 85.3166 694.283L82.7962 698.087H78.231C75.3302 698.087 73 700.417 73 703.318V721.769C73 724.67 75.3302 727 78.231 727H111.519C114.42 727 116.75 724.67 116.75 721.769V703.318C116.75 700.417 114.42 698.087 111.519 698.087ZM94.875 722.72C88.3601 722.72 83.0815 717.442 83.0815 710.927C83.0815 704.412 88.3601 699.181 94.875 699.181C101.39 699.181 106.668 704.459 106.668 710.974C106.668 717.442 101.39 722.72 94.875 722.72ZM110.853 705.458C110.806 705.458 110.758 705.458 110.663 705.458H108.761C107.905 705.41 107.239 704.697 107.287 703.841C107.334 703.033 107.952 702.414 108.761 702.367H110.663C111.519 702.319 112.232 702.985 112.28 703.841C112.327 704.697 111.709 705.41 110.853 705.458Z" fill="white"/>
<path d="M94.875 704.412C91.2609 704.412 88.3125 707.36 88.3125 710.974C88.3125 714.588 91.2609 717.489 94.875 717.489C98.4891 717.489 101.437 714.541 101.437 710.927C101.437 707.312 98.4891 704.412 94.875 704.412Z" fill="white"/>
<path d="M62.6328 75.1094H33.6787L38.475 70.3362C39.0102 69.8036 39.0123 68.938 38.4796 68.4028C37.947 67.8675 37.0813 67.8655 36.5461 68.3981L29.4023 75.5075C29.4018 75.5079 29.4014 75.5084 29.401 75.5088C28.8672 76.0414 28.8655 76.9099 29.4009 77.4443C29.4014 77.4447 29.4017 77.4452 29.4021 77.4456L36.5459 84.555C37.0811 85.0875 37.9468 85.0857 38.4795 84.5503C39.0121 84.0152 39.0101 83.1495 38.4749 82.6169L33.6787 77.8437H62.6328C63.3879 77.8437 64 77.2316 64 76.4766C64 75.7215 63.3879 75.1094 62.6328 75.1094Z" fill="white"/>
<circle cx="53" cy="169" r="40" fill="#EFEFEF"/>
<path d="M63.0854 162.237H60.38L58.8865 159.982C58.3229 159.137 57.3366 158.63 56.3221 158.63H50.1224C49.1079 158.63 48.1216 159.137 47.558 159.982L46.0644 162.237H43.3591C41.6401 162.237 40.2593 163.618 40.2593 165.337V176.271C40.2593 177.99 41.6401 179.37 43.3591 179.37H63.0854C64.8044 179.37 66.1852 177.99 66.1852 176.271V165.337C66.1852 163.618 64.8044 162.237 63.0854 162.237ZM53.2222 176.834C49.3615 176.834 46.2335 173.706 46.2335 169.845C46.2335 165.985 49.3615 162.885 53.2222 162.885C57.0829 162.885 60.211 166.013 60.211 169.874C60.211 173.706 57.0829 176.834 53.2222 176.834ZM62.6908 166.605C62.6627 166.605 62.6345 166.605 62.5781 166.605H61.4509C60.9437 166.576 60.5491 166.154 60.5773 165.647C60.6055 165.167 60.9718 164.801 61.4509 164.773H62.5781C63.0854 164.745 63.5081 165.139 63.5362 165.647C63.5644 166.154 63.1981 166.576 62.6908 166.605Z" fill="white"/>
<path d="M53.2223 165.985C51.0806 165.985 49.3334 167.732 49.3334 169.874C49.3334 172.015 51.0806 173.734 53.2223 173.734C55.364 173.734 57.1112 171.987 57.1112 169.845C57.1112 167.704 55.364 165.985 53.2223 165.985Z" fill="white"/>
<path d="M129.888 156.776C130.912 156.776 131.736 156.744 132.36 156.68C132.984 156.616 133.464 156.488 133.8 156.296C134.152 156.088 134.4 155.792 134.544 155.408C134.688 155.024 134.8 154.504 134.88 153.848H135.768V160.88H134.88C134.784 160.24 134.656 159.728 134.496 159.344C134.336 158.96 134.08 158.672 133.728 158.48C133.376 158.272 132.896 158.144 132.288 158.096C131.696 158.032 130.896 158 129.888 158V162.944C129.888 163.456 129.952 163.888 130.08 164.24C130.224 164.592 130.456 164.88 130.776 165.104C131.096 165.312 131.52 165.464 132.048 165.56C132.576 165.64 133.224 165.68 133.992 165.68C134.904 165.68 135.672 165.616 136.296 165.488C136.936 165.36 137.464 165.136 137.88 164.816C138.296 164.496 138.632 164.072 138.888 163.544C139.144 163 139.36 162.32 139.536 161.504H140.496L140.112 167H123.84V166.04C124.368 166.024 124.8 165.976 125.136 165.896C125.472 165.816 125.728 165.68 125.904 165.488C126.08 165.296 126.2 165.024 126.264 164.672C126.328 164.32 126.36 163.864 126.36 163.304V152.216C126.36 151.656 126.328 151.208 126.264 150.872C126.216 150.52 126.112 150.248 125.952 150.056C125.792 149.848 125.56 149.712 125.256 149.648C124.968 149.568 124.584 149.512 124.104 149.48V148.52H139.272L139.44 153.224H138.408C138.312 152.552 138.16 152 137.952 151.568C137.744 151.12 137.456 150.768 137.088 150.512C136.72 150.24 136.24 150.056 135.648 149.96C135.072 149.848 134.36 149.792 133.512 149.792H130.8C130.384 149.792 130.128 149.848 130.032 149.96C129.936 150.056 129.888 150.296 129.888 150.68V156.776ZM147.256 163.064C147.256 163.704 147.28 164.216 147.328 164.6C147.376 164.984 147.472 165.28 147.616 165.488C147.76 165.696 147.968 165.84 148.24 165.92C148.512 165.984 148.88 166.024 149.344 166.04V167H141.784V166.04C142.232 166.024 142.592 165.976 142.864 165.896C143.152 165.8 143.368 165.656 143.512 165.464C143.672 165.256 143.776 164.976 143.824 164.624C143.888 164.256 143.92 163.792 143.92 163.232V153.32C143.92 152.392 143.904 151.632 143.872 151.04C143.84 150.432 143.8 150.016 143.752 149.792C143.672 149.392 143.488 149.128 143.2 149C142.928 148.872 142.424 148.808 141.688 148.808V147.992L147.256 147.08V163.064ZM158.451 166.04C158.963 166.04 159.323 166.024 159.531 165.992C159.739 165.944 159.843 165.856 159.843 165.728C159.843 165.632 159.731 165.4 159.507 165.032C159.299 164.648 159.027 164.208 158.691 163.712L156.867 160.976L155.667 162.128V163.064C155.667 163.688 155.691 164.192 155.739 164.576C155.787 164.96 155.867 165.264 155.979 165.488C156.107 165.696 156.275 165.84 156.483 165.92C156.707 166 156.987 166.04 157.323 166.04V167H150.243V166.04C150.691 166.024 151.051 165.976 151.323 165.896C151.595 165.816 151.811 165.68 151.971 165.488C152.131 165.28 152.235 165 152.283 164.648C152.347 164.28 152.379 163.808 152.379 163.232V153.056C152.379 152.08 152.363 151.312 152.331 150.752C152.299 150.192 152.211 149.776 152.067 149.504C151.939 149.216 151.731 149.04 151.443 148.976C151.171 148.912 150.795 148.88 150.315 148.88V147.992L155.667 147.08V160.424L157.971 158.24C158.803 157.456 159.395 156.872 159.747 156.488C160.099 156.088 160.275 155.8 160.275 155.624C160.275 155.48 160.123 155.384 159.819 155.336C159.531 155.272 158.987 155.24 158.187 155.24V154.28H164.739V155.24C164.131 155.24 163.595 155.344 163.131 155.552C162.667 155.76 162.163 156.12 161.619 156.632L159.291 158.816L163.443 164.696C163.811 165.208 164.171 165.56 164.523 165.752C164.875 165.944 165.339 166.04 165.915 166.04V167H158.451V166.04ZM178.101 164.768C176.645 166.416 174.829 167.24 172.653 167.24C171.661 167.24 170.757 167.088 169.941 166.784C169.141 166.464 168.453 166.024 167.877 165.464C167.301 164.888 166.853 164.208 166.533 163.424C166.213 162.64 166.053 161.768 166.053 160.808C166.053 159.816 166.221 158.912 166.557 158.096C166.893 157.264 167.365 156.552 167.973 155.96C168.597 155.352 169.325 154.88 170.157 154.544C171.005 154.208 171.933 154.04 172.941 154.04C174.637 154.04 175.957 154.496 176.901 155.408C177.845 156.32 178.317 157.6 178.317 159.248C178.317 159.504 178.277 159.664 178.197 159.728C178.117 159.776 177.893 159.8 177.525 159.8H169.797C169.733 159.944 169.701 160.208 169.701 160.592C169.701 162.16 170.037 163.4 170.709 164.312C171.397 165.224 172.325 165.68 173.493 165.68C174.165 165.68 174.829 165.528 175.485 165.224C176.157 164.92 176.805 164.488 177.429 163.928L178.101 164.768ZM173.445 158.456C174.085 158.456 174.493 158.424 174.669 158.36C174.861 158.28 174.957 158.104 174.957 157.832C174.957 157.128 174.757 156.552 174.357 156.104C173.957 155.656 173.453 155.432 172.845 155.432C172.157 155.432 171.541 155.72 170.997 156.296C170.469 156.856 170.125 157.576 169.965 158.456H173.445ZM186.395 167V166.04C186.923 166.024 187.347 165.984 187.667 165.92C188.003 165.84 188.259 165.704 188.435 165.512C188.627 165.304 188.755 165.032 188.819 164.696C188.883 164.344 188.915 163.88 188.915 163.304V152.216C188.915 151.656 188.891 151.208 188.843 150.872C188.795 150.52 188.691 150.248 188.531 150.056C188.371 149.848 188.147 149.712 187.859 149.648C187.587 149.568 187.227 149.512 186.779 149.48V148.52H195.899C197.435 148.52 198.851 148.76 200.147 149.24C201.443 149.72 202.563 150.384 203.507 151.232C204.451 152.08 205.187 153.088 205.715 154.256C206.243 155.424 206.507 156.696 206.507 158.072C206.507 159.384 206.259 160.592 205.763 161.696C205.267 162.784 204.571 163.72 203.675 164.504C202.795 165.288 201.731 165.904 200.483 166.352C199.251 166.784 197.891 167 196.403 167H186.395ZM192.851 149.984C192.579 149.984 192.443 150.12 192.443 150.392V162.8C192.443 163.728 192.731 164.416 193.307 164.864C193.883 165.312 194.771 165.536 195.971 165.536C198.067 165.536 199.675 164.904 200.795 163.64C201.931 162.376 202.499 160.536 202.499 158.12C202.499 156.84 202.347 155.696 202.043 154.688C201.739 153.68 201.299 152.832 200.723 152.144C200.147 151.44 199.443 150.904 198.611 150.536C197.795 150.168 196.875 149.984 195.851 149.984H192.851ZM220.569 164.768C219.113 166.416 217.297 167.24 215.121 167.24C214.129 167.24 213.225 167.088 212.409 166.784C211.609 166.464 210.921 166.024 210.345 165.464C209.769 164.888 209.321 164.208 209.001 163.424C208.681 162.64 208.521 161.768 208.521 160.808C208.521 159.816 208.689 158.912 209.025 158.096C209.361 157.264 209.833 156.552 210.441 155.96C211.065 155.352 211.793 154.88 212.625 154.544C213.473 154.208 214.401 154.04 215.409 154.04C217.105 154.04 218.425 154.496 219.369 155.408C220.313 156.32 220.785 157.6 220.785 159.248C220.785 159.504 220.745 159.664 220.665 159.728C220.585 159.776 220.361 159.8 219.993 159.8H212.265C212.201 159.944 212.169 160.208 212.169 160.592C212.169 162.16 212.505 163.4 213.177 164.312C213.865 165.224 214.793 165.68 215.961 165.68C216.633 165.68 217.297 165.528 217.953 165.224C218.625 164.92 219.273 164.488 219.897 163.928L220.569 164.768ZM215.913 158.456C216.553 158.456 216.961 158.424 217.137 158.36C217.329 158.28 217.425 158.104 217.425 157.832C217.425 157.128 217.225 156.552 216.825 156.104C216.425 155.656 215.921 155.432 215.313 155.432C214.625 155.432 214.009 155.72 213.465 156.296C212.937 156.856 212.593 157.576 212.433 158.456H215.913ZM231.143 152.216C231.143 151.656 231.111 151.208 231.047 150.872C230.999 150.52 230.895 150.248 230.735 150.056C230.575 149.848 230.343 149.712 230.039 149.648C229.751 149.568 229.359 149.512 228.863 149.48V148.52H236.951V149.48C236.455 149.496 236.055 149.544 235.751 149.624C235.447 149.704 235.215 149.848 235.055 150.056C234.895 150.264 234.791 150.552 234.743 150.92C234.695 151.288 234.671 151.776 234.671 152.384V167.048C234.671 169.064 234.159 170.6 233.135 171.656C232.111 172.712 230.583 173.24 228.551 173.24C227.095 173.24 225.975 172.992 225.191 172.496C224.391 172 223.991 171.368 223.991 170.6C223.991 170.136 224.143 169.776 224.447 169.52C224.735 169.28 225.095 169.16 225.527 169.16C225.895 169.16 226.191 169.256 226.415 169.448C226.623 169.64 226.887 170 227.207 170.528C227.527 171.056 227.815 171.408 228.071 171.584C228.327 171.76 228.639 171.848 229.007 171.848C229.695 171.848 230.223 171.472 230.591 170.72C230.959 169.968 231.143 168.912 231.143 167.552V152.216ZM245.2 154.04C246.16 154.04 247.064 154.208 247.912 154.544C248.776 154.864 249.528 155.312 250.168 155.888C250.824 156.464 251.336 157.152 251.704 157.952C252.088 158.736 252.28 159.6 252.28 160.544C252.28 161.52 252.088 162.416 251.704 163.232C251.336 164.048 250.824 164.752 250.168 165.344C249.528 165.936 248.776 166.4 247.912 166.736C247.064 167.072 246.16 167.24 245.2 167.24C244.256 167.24 243.36 167.08 242.512 166.76C241.664 166.424 240.92 165.96 240.28 165.368C239.64 164.776 239.136 164.072 238.768 163.256C238.4 162.424 238.216 161.52 238.216 160.544C238.216 159.6 238.4 158.728 238.768 157.928C239.136 157.128 239.64 156.44 240.28 155.864C240.92 155.288 241.664 154.84 242.512 154.52C243.36 154.2 244.256 154.04 245.2 154.04ZM245.2 155.432C244.72 155.432 244.28 155.56 243.88 155.816C243.48 156.056 243.136 156.4 242.848 156.848C242.576 157.296 242.36 157.84 242.2 158.48C242.056 159.104 241.984 159.8 241.984 160.568C241.984 161.368 242.056 162.088 242.2 162.728C242.36 163.368 242.576 163.912 242.848 164.36C243.136 164.808 243.472 165.16 243.856 165.416C244.256 165.656 244.704 165.776 245.2 165.776C245.696 165.776 246.144 165.656 246.544 165.416C246.96 165.16 247.312 164.808 247.6 164.36C247.888 163.896 248.112 163.344 248.272 162.704C248.432 162.064 248.512 161.352 248.512 160.568C248.512 159.8 248.432 159.104 248.272 158.48C248.112 157.856 247.888 157.32 247.6 156.872C247.312 156.408 246.96 156.056 246.544 155.816C246.144 155.56 245.696 155.432 245.2 155.432ZM259.34 163.088C259.34 163.744 259.356 164.264 259.388 164.648C259.436 165.016 259.524 165.304 259.652 165.512C259.796 165.704 260.004 165.832 260.276 165.896C260.564 165.96 260.948 166.008 261.428 166.04V167H253.868V166.04C254.332 166.008 254.7 165.96 254.972 165.896C255.26 165.832 255.476 165.704 255.62 165.512C255.78 165.32 255.884 165.048 255.932 164.696C255.98 164.344 256.004 163.864 256.004 163.256V160.256C256.004 159.312 255.988 158.552 255.956 157.976C255.924 157.384 255.884 156.984 255.836 156.776C255.788 156.568 255.724 156.4 255.644 156.272C255.564 156.128 255.444 156.024 255.284 155.96C255.124 155.88 254.924 155.832 254.684 155.816C254.444 155.784 254.14 155.768 253.772 155.768V154.952L258.404 154.04L258.716 156.152H258.812C259.34 155.48 259.964 154.96 260.684 154.592C261.404 154.224 262.196 154.04 263.06 154.04C264.084 154.04 264.908 154.184 265.532 154.472C266.172 154.744 266.74 155.208 267.236 155.864C267.508 156.232 267.748 156.712 267.956 157.304C268.164 157.88 268.268 158.68 268.268 159.704V163.088C268.268 163.744 268.284 164.264 268.316 164.648C268.364 165.016 268.452 165.304 268.58 165.512C268.724 165.704 268.932 165.832 269.204 165.896C269.476 165.96 269.844 166.008 270.308 166.04V167H262.796V166.04C263.276 166.024 263.652 165.984 263.924 165.92C264.212 165.84 264.428 165.704 264.572 165.512C264.716 165.32 264.812 165.048 264.86 164.696C264.908 164.328 264.932 163.848 264.932 163.256V159.992C264.932 159.176 264.884 158.488 264.788 157.928C264.692 157.368 264.532 156.92 264.308 156.584C264.1 156.232 263.82 155.984 263.468 155.84C263.116 155.68 262.676 155.6 262.148 155.6C261.636 155.6 261.196 155.744 260.828 156.032C260.46 156.32 260.14 156.72 259.868 157.232C259.724 157.52 259.596 157.896 259.484 158.36C259.388 158.808 259.34 159.28 259.34 159.776V163.088ZM283.281 165.008C282.673 165.68 281.913 166.2 281.001 166.568C280.105 166.936 279.129 167.12 278.073 167.12C277.097 167.12 276.209 166.968 275.409 166.664C274.609 166.344 273.921 165.904 273.345 165.344C272.769 164.784 272.321 164.112 272.001 163.328C271.697 162.528 271.545 161.648 271.545 160.688C271.545 159.696 271.713 158.792 272.049 157.976C272.385 157.16 272.857 156.464 273.465 155.888C274.073 155.296 274.801 154.84 275.649 154.52C276.497 154.2 277.433 154.04 278.457 154.04C279.177 154.04 279.841 154.112 280.449 154.256C281.073 154.4 281.601 154.6 282.033 154.856C282.481 155.112 282.833 155.416 283.089 155.768C283.345 156.104 283.473 156.472 283.473 156.872C283.473 157.336 283.337 157.704 283.065 157.976C282.809 158.248 282.457 158.384 282.009 158.384C281.641 158.384 281.313 158.288 281.025 158.096C280.753 157.904 280.481 157.592 280.209 157.16C279.969 156.776 279.761 156.472 279.585 156.248C279.425 156.024 279.273 155.856 279.129 155.744C278.985 155.616 278.841 155.536 278.697 155.504C278.553 155.456 278.377 155.432 278.169 155.432C277.241 155.432 276.521 155.864 276.009 156.728C275.497 157.592 275.241 158.8 275.241 160.352C275.241 162.016 275.545 163.296 276.153 164.192C276.777 165.088 277.665 165.536 278.817 165.536C279.473 165.536 280.129 165.416 280.785 165.176C281.441 164.92 282.065 164.56 282.657 164.096L283.281 165.008ZM292.748 166.04C293.26 166.04 293.62 166.024 293.828 165.992C294.036 165.944 294.14 165.856 294.14 165.728C294.14 165.632 294.028 165.4 293.804 165.032C293.596 164.648 293.324 164.208 292.988 163.712L291.164 160.976L289.964 162.128V163.064C289.964 163.688 289.988 164.192 290.036 164.576C290.084 164.96 290.164 165.264 290.276 165.488C290.404 165.696 290.572 165.84 290.78 165.92C291.004 166 291.284 166.04 291.62 166.04V167H284.54V166.04C284.988 166.024 285.348 165.976 285.62 165.896C285.892 165.816 286.108 165.68 286.268 165.488C286.428 165.28 286.532 165 286.58 164.648C286.644 164.28 286.676 163.808 286.676 163.232V153.056C286.676 152.08 286.66 151.312 286.628 150.752C286.596 150.192 286.508 149.776 286.364 149.504C286.236 149.216 286.028 149.04 285.74 148.976C285.468 148.912 285.092 148.88 284.612 148.88V147.992L289.964 147.08V160.424L292.268 158.24C293.1 157.456 293.692 156.872 294.044 156.488C294.396 156.088 294.572 155.8 294.572 155.624C294.572 155.48 294.42 155.384 294.116 155.336C293.828 155.272 293.284 155.24 292.484 155.24V154.28H299.036V155.24C298.428 155.24 297.892 155.344 297.428 155.552C296.964 155.76 296.46 156.12 295.916 156.632L293.588 158.816L297.74 164.696C298.108 165.208 298.468 165.56 298.82 165.752C299.172 165.944 299.636 166.04 300.212 166.04V167H292.748V166.04ZM312.398 164.768C310.942 166.416 309.126 167.24 306.95 167.24C305.958 167.24 305.054 167.088 304.238 166.784C303.438 166.464 302.75 166.024 302.174 165.464C301.598 164.888 301.15 164.208 300.83 163.424C300.51 162.64 300.35 161.768 300.35 160.808C300.35 159.816 300.518 158.912 300.854 158.096C301.19 157.264 301.662 156.552 302.27 155.96C302.894 155.352 303.622 154.88 304.454 154.544C305.302 154.208 306.23 154.04 307.238 154.04C308.934 154.04 310.254 154.496 311.198 155.408C312.142 156.32 312.614 157.6 312.614 159.248C312.614 159.504 312.574 159.664 312.494 159.728C312.414 159.776 312.19 159.8 311.822 159.8H304.094C304.03 159.944 303.998 160.208 303.998 160.592C303.998 162.16 304.334 163.4 305.006 164.312C305.694 165.224 306.622 165.68 307.79 165.68C308.462 165.68 309.126 165.528 309.782 165.224C310.454 164.92 311.102 164.488 311.726 163.928L312.398 164.768ZM307.742 158.456C308.382 158.456 308.79 158.424 308.966 158.36C309.158 158.28 309.254 158.104 309.254 157.832C309.254 157.128 309.054 156.552 308.654 156.104C308.254 155.656 307.75 155.432 307.142 155.432C306.454 155.432 305.838 155.72 305.294 156.296C304.766 156.856 304.422 157.576 304.262 158.456H307.742ZM319.669 163.28C319.669 163.904 319.693 164.4 319.741 164.768C319.805 165.12 319.925 165.392 320.101 165.584C320.277 165.776 320.533 165.904 320.869 165.968C321.205 166.016 321.653 166.04 322.213 166.04V167H314.197V166.04C314.677 166.008 315.061 165.96 315.349 165.896C315.637 165.832 315.853 165.704 315.997 165.512C316.141 165.32 316.229 165.048 316.261 164.696C316.309 164.328 316.333 163.84 316.333 163.232V160.304C316.333 159.312 316.309 158.52 316.261 157.928C316.213 157.336 316.109 156.88 315.949 156.56C315.789 156.24 315.557 156.032 315.253 155.936C314.965 155.824 314.581 155.768 314.101 155.768V154.928L318.901 154.04L319.285 156.8H319.381C319.813 155.952 320.381 155.28 321.085 154.784C321.789 154.288 322.533 154.04 323.317 154.04C323.925 154.04 324.421 154.192 324.805 154.496C325.189 154.8 325.381 155.184 325.381 155.648C325.381 156.16 325.229 156.592 324.925 156.944C324.637 157.296 324.237 157.472 323.725 157.472C323.485 157.472 323.269 157.424 323.077 157.328C322.885 157.232 322.709 157.128 322.549 157.016C322.405 156.888 322.253 156.776 322.093 156.68C321.949 156.568 321.797 156.512 321.637 156.512C321.333 156.512 321.045 156.712 320.773 157.112C320.501 157.512 320.277 158.048 320.101 158.72C319.973 159.2 319.869 159.744 319.789 160.352C319.709 160.944 319.669 161.536 319.669 162.128V163.28ZM338.249 164.768C336.793 166.416 334.977 167.24 332.801 167.24C331.809 167.24 330.905 167.088 330.089 166.784C329.289 166.464 328.601 166.024 328.025 165.464C327.449 164.888 327.001 164.208 326.681 163.424C326.361 162.64 326.201 161.768 326.201 160.808C326.201 159.816 326.369 158.912 326.705 158.096C327.041 157.264 327.513 156.552 328.121 155.96C328.745 155.352 329.473 154.88 330.305 154.544C331.153 154.208 332.081 154.04 333.089 154.04C334.785 154.04 336.105 154.496 337.049 155.408C337.993 156.32 338.465 157.6 338.465 159.248C338.465 159.504 338.425 159.664 338.345 159.728C338.265 159.776 338.041 159.8 337.673 159.8H329.945C329.881 159.944 329.849 160.208 329.849 160.592C329.849 162.16 330.185 163.4 330.857 164.312C331.545 165.224 332.473 165.68 333.641 165.68C334.313 165.68 334.977 165.528 335.633 165.224C336.305 164.92 336.953 164.488 337.577 163.928L338.249 164.768ZM333.593 158.456C334.233 158.456 334.641 158.424 334.817 158.36C335.009 158.28 335.105 158.104 335.105 157.832C335.105 157.128 334.905 156.552 334.505 156.104C334.105 155.656 333.601 155.432 332.993 155.432C332.305 155.432 331.689 155.72 331.145 156.296C330.617 156.856 330.273 157.576 330.113 158.456H333.593Z" fill="white"/>
<path d="M138.8 193V192.568L144.864 183.096H139.328V182.456H145.792V182.888L139.712 192.36H145.84V193H138.8ZM149.836 193.192C149.036 193.192 148.45 192.952 148.076 192.472C147.703 191.992 147.516 191.251 147.516 190.248V185.32H148.22V190.152C148.22 190.973 148.354 191.581 148.62 191.976C148.898 192.36 149.346 192.552 149.964 192.552C150.423 192.552 150.839 192.429 151.212 192.184C151.586 191.928 151.996 191.528 152.444 190.984V185.32H153.148V193H152.556L152.476 191.72H152.444C152.071 192.168 151.676 192.525 151.26 192.792C150.844 193.059 150.37 193.192 149.836 193.192ZM157.041 193.192C156.412 193.192 156.097 192.787 156.097 191.976V181.496H156.801V192.072C156.801 192.243 156.833 192.371 156.897 192.456C156.961 192.531 157.041 192.568 157.137 192.568C157.169 192.568 157.201 192.568 157.233 192.568C157.276 192.568 157.34 192.557 157.425 192.536L157.553 193.112C157.478 193.133 157.404 193.149 157.329 193.16C157.254 193.181 157.158 193.192 157.041 193.192ZM161.99 193.192C161.617 193.192 161.307 193.133 161.062 193.016C160.817 192.909 160.619 192.755 160.47 192.552C160.321 192.349 160.214 192.104 160.15 191.816C160.097 191.528 160.07 191.213 160.07 190.872V185.928H158.87V185.384L160.086 185.32L160.182 183.096H160.79V185.32H163.014V185.928H160.79V190.936C160.79 191.181 160.806 191.405 160.838 191.608C160.881 191.8 160.95 191.971 161.046 192.12C161.142 192.259 161.27 192.371 161.43 192.456C161.601 192.531 161.819 192.568 162.086 192.568C162.235 192.568 162.395 192.547 162.566 192.504C162.747 192.451 162.907 192.392 163.046 192.328L163.238 192.904C163.014 192.989 162.79 193.059 162.566 193.112C162.342 193.165 162.15 193.192 161.99 193.192ZM167.618 193.192C167.128 193.192 166.664 193.101 166.226 192.92C165.8 192.739 165.426 192.477 165.106 192.136C164.786 191.784 164.53 191.363 164.338 190.872C164.157 190.371 164.066 189.805 164.066 189.176C164.066 188.547 164.157 187.981 164.338 187.48C164.53 186.979 164.781 186.557 165.09 186.216C165.41 185.864 165.768 185.597 166.162 185.416C166.568 185.224 166.984 185.128 167.41 185.128C168.328 185.128 169.048 185.437 169.57 186.056C170.093 186.675 170.354 187.549 170.354 188.68C170.354 188.776 170.354 188.872 170.354 188.968C170.354 189.064 170.344 189.16 170.322 189.256H164.786C164.797 189.736 164.872 190.184 165.01 190.6C165.149 191.005 165.341 191.357 165.586 191.656C165.842 191.944 166.146 192.173 166.498 192.344C166.85 192.504 167.245 192.584 167.682 192.584C168.098 192.584 168.472 192.525 168.802 192.408C169.144 192.28 169.458 192.109 169.746 191.896L170.034 192.44C169.725 192.621 169.384 192.792 169.01 192.952C168.648 193.112 168.184 193.192 167.618 193.192ZM164.786 188.68H169.682C169.682 187.688 169.48 186.952 169.074 186.472C168.669 185.981 168.12 185.736 167.426 185.736C167.096 185.736 166.781 185.805 166.482 185.944C166.184 186.072 165.912 186.264 165.666 186.52C165.432 186.776 165.234 187.085 165.074 187.448C164.925 187.811 164.829 188.221 164.786 188.68ZM171.961 195.48L171.737 195C172.11 194.808 172.409 194.547 172.633 194.216C172.857 193.885 172.969 193.501 172.969 193.064C172.926 193.075 172.862 193.08 172.777 193.08C172.595 193.08 172.435 193.021 172.297 192.904C172.169 192.787 172.105 192.621 172.105 192.408C172.105 192.195 172.174 192.029 172.313 191.912C172.451 191.795 172.611 191.736 172.793 191.736C173.038 191.736 173.235 191.837 173.385 192.04C173.534 192.243 173.609 192.52 173.609 192.872C173.609 193.459 173.454 193.976 173.145 194.424C172.835 194.872 172.441 195.224 171.961 195.48ZM179.224 193V182.456H182.072C183.139 182.456 183.987 182.664 184.616 183.08C185.245 183.485 185.56 184.131 185.56 185.016C185.56 185.571 185.421 186.056 185.144 186.472C184.867 186.877 184.461 187.16 183.928 187.32V187.384C184.611 187.501 185.16 187.773 185.576 188.2C185.992 188.616 186.2 189.192 186.2 189.928C186.2 190.44 186.104 190.888 185.912 191.272C185.731 191.656 185.469 191.976 185.128 192.232C184.787 192.488 184.376 192.68 183.896 192.808C183.416 192.936 182.877 193 182.28 193H179.224ZM179.96 187.096H181.784C182.861 187.096 183.635 186.92 184.104 186.568C184.584 186.205 184.824 185.715 184.824 185.096C184.824 184.349 184.573 183.827 184.072 183.528C183.571 183.219 182.835 183.064 181.864 183.064H179.96V187.096ZM179.96 192.392H182.088C183.144 192.392 183.971 192.195 184.568 191.8C185.176 191.405 185.48 190.787 185.48 189.944C185.48 189.176 185.187 188.611 184.6 188.248C184.013 187.885 183.176 187.704 182.088 187.704H179.96V192.392ZM191.306 193.192C190.815 193.192 190.351 193.101 189.914 192.92C189.487 192.739 189.114 192.477 188.794 192.136C188.474 191.784 188.218 191.363 188.026 190.872C187.845 190.371 187.754 189.805 187.754 189.176C187.754 188.547 187.845 187.981 188.026 187.48C188.218 186.979 188.469 186.557 188.778 186.216C189.098 185.864 189.455 185.597 189.85 185.416C190.255 185.224 190.671 185.128 191.098 185.128C192.015 185.128 192.735 185.437 193.258 186.056C193.781 186.675 194.042 187.549 194.042 188.68C194.042 188.776 194.042 188.872 194.042 188.968C194.042 189.064 194.031 189.16 194.01 189.256H188.474C188.485 189.736 188.559 190.184 188.698 190.6C188.837 191.005 189.029 191.357 189.274 191.656C189.53 191.944 189.834 192.173 190.186 192.344C190.538 192.504 190.933 192.584 191.37 192.584C191.786 192.584 192.159 192.525 192.49 192.408C192.831 192.28 193.146 192.109 193.434 191.896L193.722 192.44C193.413 192.621 193.071 192.792 192.698 192.952C192.335 193.112 191.871 193.192 191.306 193.192ZM188.474 188.68H193.37C193.37 187.688 193.167 186.952 192.762 186.472C192.357 185.981 191.807 185.736 191.114 185.736C190.783 185.736 190.469 185.805 190.17 185.944C189.871 186.072 189.599 186.264 189.354 186.52C189.119 186.776 188.922 187.085 188.762 187.448C188.613 187.811 188.517 188.221 188.474 188.68ZM197.072 193.192C196.443 193.192 196.128 192.787 196.128 191.976V181.496H196.832V192.072C196.832 192.243 196.864 192.371 196.928 192.456C196.992 192.531 197.072 192.568 197.168 192.568C197.2 192.568 197.232 192.568 197.264 192.568C197.307 192.568 197.371 192.557 197.456 192.536L197.584 193.112C197.51 193.133 197.435 193.149 197.36 193.16C197.286 193.181 197.19 193.192 197.072 193.192ZM202.437 196.696C201.466 196.696 200.698 196.504 200.133 196.12C199.568 195.736 199.285 195.219 199.285 194.568C199.285 194.227 199.386 193.896 199.589 193.576C199.792 193.256 200.069 192.968 200.421 192.712V192.648C200.229 192.531 200.069 192.371 199.941 192.168C199.813 191.965 199.749 191.715 199.749 191.416C199.749 191.075 199.845 190.787 200.037 190.552C200.229 190.307 200.41 190.125 200.581 190.008V189.944C200.336 189.731 200.112 189.443 199.909 189.08C199.717 188.717 199.621 188.301 199.621 187.832C199.621 187.437 199.69 187.075 199.829 186.744C199.968 186.413 200.16 186.131 200.405 185.896C200.65 185.651 200.938 185.464 201.269 185.336C201.6 185.197 201.952 185.128 202.325 185.128C202.538 185.128 202.73 185.149 202.901 185.192C203.072 185.224 203.216 185.267 203.333 185.32H205.941V185.912H204.149C204.394 186.125 204.597 186.403 204.757 186.744C204.917 187.075 204.997 187.443 204.997 187.848C204.997 188.243 204.928 188.605 204.789 188.936C204.65 189.267 204.458 189.555 204.213 189.8C203.978 190.035 203.696 190.221 203.365 190.36C203.045 190.488 202.698 190.552 202.325 190.552C202.112 190.552 201.888 190.525 201.653 190.472C201.429 190.419 201.226 190.339 201.045 190.232C200.874 190.371 200.725 190.525 200.597 190.696C200.48 190.867 200.421 191.08 200.421 191.336C200.421 191.613 200.522 191.853 200.725 192.056C200.928 192.248 201.317 192.344 201.893 192.344H203.541C204.405 192.344 205.04 192.488 205.445 192.776C205.861 193.053 206.069 193.496 206.069 194.104C206.069 194.435 205.984 194.755 205.813 195.064C205.642 195.384 205.397 195.661 205.077 195.896C204.768 196.141 204.389 196.333 203.941 196.472C203.493 196.621 202.992 196.696 202.437 196.696ZM202.325 189.992C202.592 189.992 202.842 189.944 203.077 189.848C203.322 189.741 203.536 189.592 203.717 189.4C203.898 189.208 204.042 188.979 204.149 188.712C204.256 188.445 204.309 188.152 204.309 187.832C204.309 187.512 204.256 187.219 204.149 186.952C204.042 186.685 203.898 186.461 203.717 186.28C203.546 186.099 203.338 185.96 203.093 185.864C202.848 185.757 202.592 185.704 202.325 185.704C202.048 185.704 201.786 185.757 201.541 185.864C201.306 185.96 201.098 186.099 200.917 186.28C200.736 186.461 200.592 186.685 200.485 186.952C200.378 187.208 200.325 187.501 200.325 187.832C200.325 188.152 200.378 188.445 200.485 188.712C200.592 188.979 200.736 189.208 200.917 189.4C201.109 189.592 201.322 189.741 201.557 189.848C201.802 189.944 202.058 189.992 202.325 189.992ZM202.517 196.12C202.944 196.12 203.333 196.061 203.685 195.944C204.037 195.837 204.336 195.693 204.581 195.512C204.826 195.331 205.013 195.123 205.141 194.888C205.28 194.664 205.349 194.429 205.349 194.184C205.349 193.757 205.194 193.453 204.885 193.272C204.586 193.101 204.149 193.016 203.573 193.016H201.925C201.84 193.016 201.706 193.011 201.525 193C201.354 192.979 201.168 192.941 200.965 192.888C200.613 193.133 200.357 193.395 200.197 193.672C200.037 193.949 199.957 194.227 199.957 194.504C199.957 194.984 200.176 195.373 200.613 195.672C201.061 195.971 201.696 196.12 202.517 196.12ZM207.722 193V185.32H208.426V193H207.722ZM208.09 183.464C207.909 183.464 207.754 183.405 207.626 183.288C207.509 183.171 207.45 183.021 207.45 182.84C207.45 182.637 207.509 182.483 207.626 182.376C207.754 182.259 207.909 182.2 208.09 182.2C208.271 182.2 208.421 182.259 208.538 182.376C208.666 182.483 208.73 182.637 208.73 182.84C208.73 183.021 208.666 183.171 208.538 183.288C208.421 183.405 208.271 183.464 208.09 183.464ZM213.586 193.192C212.786 193.192 212.2 192.952 211.826 192.472C211.453 191.992 211.266 191.251 211.266 190.248V185.32H211.97V190.152C211.97 190.973 212.104 191.581 212.37 191.976C212.648 192.36 213.096 192.552 213.714 192.552C214.173 192.552 214.589 192.429 214.962 192.184C215.336 191.928 215.746 191.528 216.194 190.984V185.32H216.898V193H216.306L216.226 191.72H216.194C215.821 192.168 215.426 192.525 215.01 192.792C214.594 193.059 214.12 193.192 213.586 193.192ZM219.847 193V185.32H220.455L220.519 186.504H220.567C220.908 186.109 221.287 185.784 221.703 185.528C222.13 185.261 222.556 185.128 222.983 185.128C223.602 185.128 224.076 185.272 224.407 185.56C224.738 185.837 224.972 186.216 225.111 186.696C225.559 186.216 225.991 185.837 226.407 185.56C226.834 185.272 227.271 185.128 227.719 185.128C229.255 185.128 230.023 186.109 230.023 188.072V193H229.303V188.168C229.303 187.347 229.164 186.744 228.887 186.36C228.61 185.965 228.178 185.768 227.591 185.768C226.898 185.768 226.13 186.248 225.287 187.208V193H224.583V188.168C224.583 187.347 224.444 186.744 224.167 186.36C223.89 185.965 223.452 185.768 222.855 185.768C222.162 185.768 221.394 186.248 220.551 187.208V193H219.847Z" fill="white"/>
<path d="M36.472 290.472V279.32H37.08L37.144 280.28H37.192C37.5653 279.981 37.9707 279.715 38.408 279.48C38.856 279.245 39.32 279.128 39.8 279.128C40.824 279.128 41.592 279.485 42.104 280.2C42.616 280.904 42.872 281.853 42.872 283.048C42.872 283.699 42.7813 284.28 42.6 284.792C42.4187 285.304 42.168 285.741 41.848 286.104C41.5387 286.456 41.176 286.728 40.76 286.92C40.3547 287.101 39.928 287.192 39.48 287.192C39.1173 287.192 38.744 287.112 38.36 286.952C37.976 286.781 37.5813 286.547 37.176 286.248V290.472H36.472ZM39.448 286.568C39.832 286.568 40.1893 286.483 40.52 286.312C40.8507 286.141 41.1333 285.901 41.368 285.592C41.6027 285.283 41.784 284.915 41.912 284.488C42.0507 284.051 42.12 283.571 42.12 283.048C42.12 282.579 42.072 282.141 41.976 281.736C41.8907 281.331 41.752 280.984 41.56 280.696C41.368 280.397 41.1173 280.168 40.808 280.008C40.4987 279.837 40.1253 279.752 39.688 279.752C39.304 279.752 38.904 279.864 38.488 280.088C38.0827 280.301 37.6453 280.611 37.176 281.016V285.576C37.624 285.939 38.04 286.195 38.424 286.344C38.808 286.493 39.1493 286.568 39.448 286.568ZM47.9751 287.192C47.5165 287.192 47.0791 287.101 46.6631 286.92C46.2471 286.739 45.8791 286.477 45.5591 286.136C45.2498 285.795 44.9991 285.379 44.8071 284.888C44.6258 284.387 44.5351 283.816 44.5351 283.176C44.5351 282.536 44.6258 281.965 44.8071 281.464C44.9991 280.952 45.2498 280.525 45.5591 280.184C45.8791 279.843 46.2471 279.581 46.6631 279.4C47.0791 279.219 47.5165 279.128 47.9751 279.128C48.4338 279.128 48.8711 279.219 49.2871 279.4C49.7138 279.581 50.0818 279.843 50.3911 280.184C50.7111 280.525 50.9618 280.952 51.1431 281.464C51.3351 281.965 51.4311 282.536 51.4311 283.176C51.4311 283.816 51.3351 284.387 51.1431 284.888C50.9618 285.379 50.7111 285.795 50.3911 286.136C50.0818 286.477 49.7138 286.739 49.2871 286.92C48.8711 287.101 48.4338 287.192 47.9751 287.192ZM47.9751 286.568C48.3591 286.568 48.7165 286.488 49.0471 286.328C49.3885 286.157 49.6765 285.923 49.9111 285.624C50.1565 285.325 50.3485 284.968 50.4871 284.552C50.6258 284.136 50.6951 283.677 50.6951 283.176C50.6951 282.664 50.6258 282.2 50.4871 281.784C50.3485 281.368 50.1565 281.011 49.9111 280.712C49.6765 280.403 49.3885 280.168 49.0471 280.008C48.7165 279.837 48.3591 279.752 47.9751 279.752C47.5911 279.752 47.2338 279.837 46.9031 280.008C46.5725 280.168 46.2845 280.403 46.0391 280.712C45.8045 281.011 45.6178 281.368 45.4791 281.784C45.3405 282.2 45.2711 282.664 45.2711 283.176C45.2711 283.677 45.3405 284.136 45.4791 284.552C45.6178 284.968 45.8045 285.325 46.0391 285.624C46.2845 285.923 46.5725 286.157 46.9031 286.328C47.2338 286.488 47.5911 286.568 47.9751 286.568ZM55.5936 287.192C55.0176 287.192 54.4896 287.091 54.0096 286.888C53.5296 286.675 53.119 286.424 52.7776 286.136L53.1936 285.608C53.5243 285.885 53.8763 286.12 54.2496 286.312C54.623 286.493 55.087 286.584 55.6416 286.584C56.2496 286.584 56.703 286.435 57.0016 286.136C57.311 285.827 57.4656 285.469 57.4656 285.064C57.4656 284.829 57.407 284.621 57.2896 284.44C57.183 284.259 57.039 284.104 56.8576 283.976C56.6763 283.848 56.4736 283.736 56.2496 283.64C56.0363 283.544 55.8176 283.453 55.5936 283.368C55.3056 283.261 55.0123 283.149 54.7136 283.032C54.4256 282.915 54.1643 282.776 53.9296 282.616C53.695 282.445 53.503 282.248 53.3536 282.024C53.215 281.789 53.1456 281.507 53.1456 281.176C53.1456 280.899 53.199 280.637 53.3056 280.392C53.4123 280.136 53.5723 279.917 53.7856 279.736C53.999 279.544 54.255 279.395 54.5536 279.288C54.863 279.181 55.2203 279.128 55.6256 279.128C56.031 279.128 56.4256 279.203 56.8096 279.352C57.2043 279.501 57.5403 279.693 57.8176 279.928L57.4336 280.424C57.1776 280.232 56.9056 280.072 56.6176 279.944C56.3296 279.805 55.9883 279.736 55.5936 279.736C55.295 279.736 55.039 279.779 54.8256 279.864C54.6123 279.939 54.431 280.04 54.2816 280.168C54.143 280.296 54.0363 280.445 53.9616 280.616C53.8976 280.787 53.8656 280.957 53.8656 281.128C53.8656 281.352 53.9136 281.544 54.0096 281.704C54.1163 281.853 54.255 281.987 54.4256 282.104C54.5963 282.221 54.7883 282.328 55.0016 282.424C55.2256 282.509 55.4496 282.595 55.6736 282.68C55.9723 282.797 56.271 282.915 56.5696 283.032C56.8683 283.149 57.135 283.293 57.3696 283.464C57.615 283.635 57.8123 283.848 57.9616 284.104C58.111 284.349 58.1856 284.659 58.1856 285.032C58.1856 285.32 58.127 285.597 58.0096 285.864C57.903 286.12 57.7376 286.349 57.5136 286.552C57.2896 286.744 57.0176 286.899 56.6976 287.016C56.3776 287.133 56.0096 287.192 55.5936 287.192ZM62.0055 287.192C61.6322 287.192 61.3228 287.133 61.0775 287.016C60.8322 286.909 60.6348 286.755 60.4855 286.552C60.3362 286.349 60.2295 286.104 60.1655 285.816C60.1122 285.528 60.0855 285.213 60.0855 284.872V279.928H58.8855V279.384L60.1015 279.32L60.1975 277.096H60.8055V279.32H63.0295V279.928H60.8055V284.936C60.8055 285.181 60.8215 285.405 60.8535 285.608C60.8962 285.8 60.9655 285.971 61.0615 286.12C61.1575 286.259 61.2855 286.371 61.4455 286.456C61.6162 286.531 61.8348 286.568 62.1015 286.568C62.2508 286.568 62.4108 286.547 62.5815 286.504C62.7628 286.451 62.9228 286.392 63.0615 286.328L63.2535 286.904C63.0295 286.989 62.8055 287.059 62.5815 287.112C62.3575 287.165 62.1655 287.192 62.0055 287.192ZM66.5936 287.192C66.0176 287.192 65.4896 287.091 65.0096 286.888C64.5296 286.675 64.119 286.424 63.7776 286.136L64.1936 285.608C64.5243 285.885 64.8763 286.12 65.2496 286.312C65.623 286.493 66.087 286.584 66.6416 286.584C67.2496 286.584 67.703 286.435 68.0016 286.136C68.311 285.827 68.4656 285.469 68.4656 285.064C68.4656 284.829 68.407 284.621 68.2896 284.44C68.183 284.259 68.039 284.104 67.8576 283.976C67.6763 283.848 67.4736 283.736 67.2496 283.64C67.0363 283.544 66.8176 283.453 66.5936 283.368C66.3056 283.261 66.0123 283.149 65.7136 283.032C65.4256 282.915 65.1643 282.776 64.9296 282.616C64.695 282.445 64.503 282.248 64.3536 282.024C64.215 281.789 64.1456 281.507 64.1456 281.176C64.1456 280.899 64.199 280.637 64.3056 280.392C64.4123 280.136 64.5723 279.917 64.7856 279.736C64.999 279.544 65.255 279.395 65.5536 279.288C65.863 279.181 66.2203 279.128 66.6256 279.128C67.031 279.128 67.4256 279.203 67.8096 279.352C68.2043 279.501 68.5403 279.693 68.8176 279.928L68.4336 280.424C68.1776 280.232 67.9056 280.072 67.6176 279.944C67.3296 279.805 66.9883 279.736 66.5936 279.736C66.295 279.736 66.039 279.779 65.8256 279.864C65.6123 279.939 65.431 280.04 65.2816 280.168C65.143 280.296 65.0363 280.445 64.9616 280.616C64.8976 280.787 64.8656 280.957 64.8656 281.128C64.8656 281.352 64.9136 281.544 65.0096 281.704C65.1163 281.853 65.255 281.987 65.4256 282.104C65.5963 282.221 65.7883 282.328 66.0016 282.424C66.2256 282.509 66.4496 282.595 66.6736 282.68C66.9723 282.797 67.271 282.915 67.5696 283.032C67.8683 283.149 68.135 283.293 68.3696 283.464C68.615 283.635 68.8123 283.848 68.9616 284.104C69.111 284.349 69.1856 284.659 69.1856 285.032C69.1856 285.32 69.127 285.597 69.0096 285.864C68.903 286.12 68.7376 286.349 68.5136 286.552C68.2896 286.744 68.0176 286.899 67.6976 287.016C67.3776 287.133 67.0096 287.192 66.5936 287.192Z" fill="white"/>
<path d="M159.584 287V279.928H158.528V279.384L159.584 279.32V277.608C159.584 276.84 159.749 276.264 160.08 275.88C160.411 275.496 160.88 275.304 161.488 275.304C161.861 275.304 162.235 275.389 162.608 275.56L162.416 276.136C162.256 276.051 162.096 275.992 161.936 275.96C161.787 275.928 161.637 275.912 161.488 275.912C161.083 275.912 160.779 276.061 160.576 276.36C160.384 276.659 160.288 277.091 160.288 277.656V279.32H162.064V279.928H160.288V287H159.584ZM166.319 287.192C165.86 287.192 165.423 287.101 165.007 286.92C164.591 286.739 164.223 286.477 163.903 286.136C163.594 285.795 163.343 285.379 163.151 284.888C162.97 284.387 162.879 283.816 162.879 283.176C162.879 282.536 162.97 281.965 163.151 281.464C163.343 280.952 163.594 280.525 163.903 280.184C164.223 279.843 164.591 279.581 165.007 279.4C165.423 279.219 165.86 279.128 166.319 279.128C166.778 279.128 167.215 279.219 167.631 279.4C168.058 279.581 168.426 279.843 168.735 280.184C169.055 280.525 169.306 280.952 169.487 281.464C169.679 281.965 169.775 282.536 169.775 283.176C169.775 283.816 169.679 284.387 169.487 284.888C169.306 285.379 169.055 285.795 168.735 286.136C168.426 286.477 168.058 286.739 167.631 286.92C167.215 287.101 166.778 287.192 166.319 287.192ZM166.319 286.568C166.703 286.568 167.06 286.488 167.391 286.328C167.732 286.157 168.02 285.923 168.255 285.624C168.5 285.325 168.692 284.968 168.831 284.552C168.97 284.136 169.039 283.677 169.039 283.176C169.039 282.664 168.97 282.2 168.831 281.784C168.692 281.368 168.5 281.011 168.255 280.712C168.02 280.403 167.732 280.168 167.391 280.008C167.06 279.837 166.703 279.752 166.319 279.752C165.935 279.752 165.578 279.837 165.247 280.008C164.916 280.168 164.628 280.403 164.383 280.712C164.148 281.011 163.962 281.368 163.823 281.784C163.684 282.2 163.615 282.664 163.615 283.176C163.615 283.677 163.684 284.136 163.823 284.552C163.962 284.968 164.148 285.325 164.383 285.624C164.628 285.923 164.916 286.157 165.247 286.328C165.578 286.488 165.935 286.568 166.319 286.568ZM173.025 287.192C172.396 287.192 172.081 286.787 172.081 285.976V275.496H172.785V286.072C172.785 286.243 172.817 286.371 172.881 286.456C172.945 286.531 173.025 286.568 173.121 286.568C173.153 286.568 173.185 286.568 173.217 286.568C173.26 286.568 173.324 286.557 173.409 286.536L173.537 287.112C173.463 287.133 173.388 287.149 173.313 287.16C173.239 287.181 173.143 287.192 173.025 287.192ZM176.822 287.192C176.193 287.192 175.878 286.787 175.878 285.976V275.496H176.582V286.072C176.582 286.243 176.614 286.371 176.678 286.456C176.742 286.531 176.822 286.568 176.918 286.568C176.95 286.568 176.982 286.568 177.014 286.568C177.057 286.568 177.121 286.557 177.206 286.536L177.334 287.112C177.26 287.133 177.185 287.149 177.11 287.16C177.036 287.181 176.94 287.192 176.822 287.192ZM182.475 287.192C182.016 287.192 181.579 287.101 181.163 286.92C180.747 286.739 180.379 286.477 180.059 286.136C179.75 285.795 179.499 285.379 179.307 284.888C179.126 284.387 179.035 283.816 179.035 283.176C179.035 282.536 179.126 281.965 179.307 281.464C179.499 280.952 179.75 280.525 180.059 280.184C180.379 279.843 180.747 279.581 181.163 279.4C181.579 279.219 182.016 279.128 182.475 279.128C182.934 279.128 183.371 279.219 183.787 279.4C184.214 279.581 184.582 279.843 184.891 280.184C185.211 280.525 185.462 280.952 185.643 281.464C185.835 281.965 185.931 282.536 185.931 283.176C185.931 283.816 185.835 284.387 185.643 284.888C185.462 285.379 185.211 285.795 184.891 286.136C184.582 286.477 184.214 286.739 183.787 286.92C183.371 287.101 182.934 287.192 182.475 287.192ZM182.475 286.568C182.859 286.568 183.216 286.488 183.547 286.328C183.888 286.157 184.176 285.923 184.411 285.624C184.656 285.325 184.848 284.968 184.987 284.552C185.126 284.136 185.195 283.677 185.195 283.176C185.195 282.664 185.126 282.2 184.987 281.784C184.848 281.368 184.656 281.011 184.411 280.712C184.176 280.403 183.888 280.168 183.547 280.008C183.216 279.837 182.859 279.752 182.475 279.752C182.091 279.752 181.734 279.837 181.403 280.008C181.072 280.168 180.784 280.403 180.539 280.712C180.304 281.011 180.118 281.368 179.979 281.784C179.84 282.2 179.771 282.664 179.771 283.176C179.771 283.677 179.84 284.136 179.979 284.552C180.118 284.968 180.304 285.325 180.539 285.624C180.784 285.923 181.072 286.157 181.403 286.328C181.734 286.488 182.091 286.568 182.475 286.568ZM189.422 287L187.15 279.32H187.918L189.294 284.296C189.39 284.648 189.48 284.995 189.566 285.336C189.651 285.667 189.736 286.003 189.822 286.344H189.886C189.971 286.003 190.062 285.667 190.158 285.336C190.254 284.995 190.35 284.648 190.446 284.296L191.838 279.32H192.686L194.078 284.296C194.174 284.648 194.27 284.995 194.366 285.336C194.462 285.667 194.558 286.003 194.654 286.344H194.718C194.803 286.003 194.894 285.667 194.99 285.336C195.086 284.995 195.176 284.648 195.262 284.296L196.622 279.32H197.342L195.134 287H194.206L192.862 282.232C192.744 281.859 192.643 281.496 192.558 281.144C192.483 280.781 192.387 280.413 192.27 280.04H192.206C192.12 280.413 192.024 280.787 191.918 281.16C191.822 281.523 191.715 281.891 191.598 282.264L190.27 287H189.422ZM202.103 287.192C201.612 287.192 201.148 287.101 200.711 286.92C200.284 286.739 199.911 286.477 199.591 286.136C199.271 285.784 199.015 285.363 198.823 284.872C198.641 284.371 198.551 283.805 198.551 283.176C198.551 282.547 198.641 281.981 198.823 281.48C199.015 280.979 199.265 280.557 199.575 280.216C199.895 279.864 200.252 279.597 200.647 279.416C201.052 279.224 201.468 279.128 201.895 279.128C202.812 279.128 203.532 279.437 204.055 280.056C204.577 280.675 204.839 281.549 204.839 282.68C204.839 282.776 204.839 282.872 204.839 282.968C204.839 283.064 204.828 283.16 204.807 283.256H199.271C199.281 283.736 199.356 284.184 199.495 284.6C199.633 285.005 199.825 285.357 200.071 285.656C200.327 285.944 200.631 286.173 200.983 286.344C201.335 286.504 201.729 286.584 202.167 286.584C202.583 286.584 202.956 286.525 203.287 286.408C203.628 286.28 203.943 286.109 204.231 285.896L204.519 286.44C204.209 286.621 203.868 286.792 203.495 286.952C203.132 287.112 202.668 287.192 202.103 287.192ZM199.271 282.68H204.167C204.167 281.688 203.964 280.952 203.559 280.472C203.153 279.981 202.604 279.736 201.911 279.736C201.58 279.736 201.265 279.805 200.967 279.944C200.668 280.072 200.396 280.264 200.151 280.52C199.916 280.776 199.719 281.085 199.559 281.448C199.409 281.811 199.313 282.221 199.271 282.68ZM206.925 287V279.32H207.533L207.597 280.744H207.645C207.901 280.264 208.21 279.875 208.573 279.576C208.946 279.277 209.362 279.128 209.821 279.128C209.97 279.128 210.104 279.139 210.221 279.16C210.338 279.181 210.461 279.224 210.589 279.288L210.429 279.928C210.301 279.875 210.189 279.843 210.093 279.832C209.997 279.811 209.874 279.8 209.725 279.8C209.384 279.8 209.021 279.949 208.637 280.248C208.264 280.536 207.928 281.043 207.629 281.768V287H206.925ZM213.859 287.192C213.283 287.192 212.755 287.091 212.275 286.888C211.795 286.675 211.385 286.424 211.043 286.136L211.459 285.608C211.79 285.885 212.142 286.12 212.515 286.312C212.889 286.493 213.353 286.584 213.907 286.584C214.515 286.584 214.969 286.435 215.267 286.136C215.577 285.827 215.731 285.469 215.731 285.064C215.731 284.829 215.673 284.621 215.555 284.44C215.449 284.259 215.305 284.104 215.123 283.976C214.942 283.848 214.739 283.736 214.515 283.64C214.302 283.544 214.083 283.453 213.859 283.368C213.571 283.261 213.278 283.149 212.979 283.032C212.691 282.915 212.43 282.776 212.195 282.616C211.961 282.445 211.769 282.248 211.619 282.024C211.481 281.789 211.411 281.507 211.411 281.176C211.411 280.899 211.465 280.637 211.571 280.392C211.678 280.136 211.838 279.917 212.051 279.736C212.265 279.544 212.521 279.395 212.819 279.288C213.129 279.181 213.486 279.128 213.891 279.128C214.297 279.128 214.691 279.203 215.075 279.352C215.47 279.501 215.806 279.693 216.083 279.928L215.699 280.424C215.443 280.232 215.171 280.072 214.883 279.944C214.595 279.805 214.254 279.736 213.859 279.736C213.561 279.736 213.305 279.779 213.091 279.864C212.878 279.939 212.697 280.04 212.547 280.168C212.409 280.296 212.302 280.445 212.227 280.616C212.163 280.787 212.131 280.957 212.131 281.128C212.131 281.352 212.179 281.544 212.275 281.704C212.382 281.853 212.521 281.987 212.691 282.104C212.862 282.221 213.054 282.328 213.267 282.424C213.491 282.509 213.715 282.595 213.939 282.68C214.238 282.797 214.537 282.915 214.835 283.032C215.134 283.149 215.401 283.293 215.635 283.464C215.881 283.635 216.078 283.848 216.227 284.104C216.377 284.349 216.451 284.659 216.451 285.032C216.451 285.32 216.393 285.597 216.275 285.864C216.169 286.12 216.003 286.349 215.779 286.552C215.555 286.744 215.283 286.899 214.963 287.016C214.643 287.133 214.275 287.192 213.859 287.192Z" fill="white"/>
<path d="M290.584 287V279.928H289.528V279.384L290.584 279.32V277.608C290.584 276.84 290.749 276.264 291.08 275.88C291.411 275.496 291.88 275.304 292.488 275.304C292.861 275.304 293.235 275.389 293.608 275.56L293.416 276.136C293.256 276.051 293.096 275.992 292.936 275.96C292.787 275.928 292.637 275.912 292.488 275.912C292.083 275.912 291.779 276.061 291.576 276.36C291.384 276.659 291.288 277.091 291.288 277.656V279.32H293.064V279.928H291.288V287H290.584ZM297.319 287.192C296.86 287.192 296.423 287.101 296.007 286.92C295.591 286.739 295.223 286.477 294.903 286.136C294.594 285.795 294.343 285.379 294.151 284.888C293.97 284.387 293.879 283.816 293.879 283.176C293.879 282.536 293.97 281.965 294.151 281.464C294.343 280.952 294.594 280.525 294.903 280.184C295.223 279.843 295.591 279.581 296.007 279.4C296.423 279.219 296.86 279.128 297.319 279.128C297.778 279.128 298.215 279.219 298.631 279.4C299.058 279.581 299.426 279.843 299.735 280.184C300.055 280.525 300.306 280.952 300.487 281.464C300.679 281.965 300.775 282.536 300.775 283.176C300.775 283.816 300.679 284.387 300.487 284.888C300.306 285.379 300.055 285.795 299.735 286.136C299.426 286.477 299.058 286.739 298.631 286.92C298.215 287.101 297.778 287.192 297.319 287.192ZM297.319 286.568C297.703 286.568 298.06 286.488 298.391 286.328C298.732 286.157 299.02 285.923 299.255 285.624C299.5 285.325 299.692 284.968 299.831 284.552C299.97 284.136 300.039 283.677 300.039 283.176C300.039 282.664 299.97 282.2 299.831 281.784C299.692 281.368 299.5 281.011 299.255 280.712C299.02 280.403 298.732 280.168 298.391 280.008C298.06 279.837 297.703 279.752 297.319 279.752C296.935 279.752 296.578 279.837 296.247 280.008C295.916 280.168 295.628 280.403 295.383 280.712C295.148 281.011 294.962 281.368 294.823 281.784C294.684 282.2 294.615 282.664 294.615 283.176C294.615 283.677 294.684 284.136 294.823 284.552C294.962 284.968 295.148 285.325 295.383 285.624C295.628 285.923 295.916 286.157 296.247 286.328C296.578 286.488 296.935 286.568 297.319 286.568ZM304.025 287.192C303.396 287.192 303.081 286.787 303.081 285.976V275.496H303.785V286.072C303.785 286.243 303.817 286.371 303.881 286.456C303.945 286.531 304.025 286.568 304.121 286.568C304.153 286.568 304.185 286.568 304.217 286.568C304.26 286.568 304.324 286.557 304.409 286.536L304.537 287.112C304.463 287.133 304.388 287.149 304.313 287.16C304.239 287.181 304.143 287.192 304.025 287.192ZM307.822 287.192C307.193 287.192 306.878 286.787 306.878 285.976V275.496H307.582V286.072C307.582 286.243 307.614 286.371 307.678 286.456C307.742 286.531 307.822 286.568 307.918 286.568C307.95 286.568 307.982 286.568 308.014 286.568C308.057 286.568 308.121 286.557 308.206 286.536L308.334 287.112C308.26 287.133 308.185 287.149 308.11 287.16C308.036 287.181 307.94 287.192 307.822 287.192ZM313.475 287.192C313.016 287.192 312.579 287.101 312.163 286.92C311.747 286.739 311.379 286.477 311.059 286.136C310.75 285.795 310.499 285.379 310.307 284.888C310.126 284.387 310.035 283.816 310.035 283.176C310.035 282.536 310.126 281.965 310.307 281.464C310.499 280.952 310.75 280.525 311.059 280.184C311.379 279.843 311.747 279.581 312.163 279.4C312.579 279.219 313.016 279.128 313.475 279.128C313.934 279.128 314.371 279.219 314.787 279.4C315.214 279.581 315.582 279.843 315.891 280.184C316.211 280.525 316.462 280.952 316.643 281.464C316.835 281.965 316.931 282.536 316.931 283.176C316.931 283.816 316.835 284.387 316.643 284.888C316.462 285.379 316.211 285.795 315.891 286.136C315.582 286.477 315.214 286.739 314.787 286.92C314.371 287.101 313.934 287.192 313.475 287.192ZM313.475 286.568C313.859 286.568 314.216 286.488 314.547 286.328C314.888 286.157 315.176 285.923 315.411 285.624C315.656 285.325 315.848 284.968 315.987 284.552C316.126 284.136 316.195 283.677 316.195 283.176C316.195 282.664 316.126 282.2 315.987 281.784C315.848 281.368 315.656 281.011 315.411 280.712C315.176 280.403 314.888 280.168 314.547 280.008C314.216 279.837 313.859 279.752 313.475 279.752C313.091 279.752 312.734 279.837 312.403 280.008C312.072 280.168 311.784 280.403 311.539 280.712C311.304 281.011 311.118 281.368 310.979 281.784C310.84 282.2 310.771 282.664 310.771 283.176C310.771 283.677 310.84 284.136 310.979 284.552C311.118 284.968 311.304 285.325 311.539 285.624C311.784 285.923 312.072 286.157 312.403 286.328C312.734 286.488 313.091 286.568 313.475 286.568ZM320.422 287L318.15 279.32H318.918L320.294 284.296C320.39 284.648 320.48 284.995 320.566 285.336C320.651 285.667 320.736 286.003 320.822 286.344H320.886C320.971 286.003 321.062 285.667 321.158 285.336C321.254 284.995 321.35 284.648 321.446 284.296L322.838 279.32H323.686L325.078 284.296C325.174 284.648 325.27 284.995 325.366 285.336C325.462 285.667 325.558 286.003 325.654 286.344H325.718C325.803 286.003 325.894 285.667 325.99 285.336C326.086 284.995 326.176 284.648 326.262 284.296L327.622 279.32H328.342L326.134 287H325.206L323.862 282.232C323.744 281.859 323.643 281.496 323.558 281.144C323.483 280.781 323.387 280.413 323.27 280.04H323.206C323.12 280.413 323.024 280.787 322.918 281.16C322.822 281.523 322.715 281.891 322.598 282.264L321.27 287H320.422ZM330.191 287V279.32H330.895V287H330.191ZM330.559 277.464C330.377 277.464 330.223 277.405 330.095 277.288C329.977 277.171 329.919 277.021 329.919 276.84C329.919 276.637 329.977 276.483 330.095 276.376C330.223 276.259 330.377 276.2 330.559 276.2C330.74 276.2 330.889 276.259 331.007 276.376C331.135 276.483 331.199 276.637 331.199 276.84C331.199 277.021 331.135 277.171 331.007 277.288C330.889 277.405 330.74 277.464 330.559 277.464ZM333.847 287V279.32H334.455L334.519 280.504H334.567C334.962 280.109 335.367 279.784 335.783 279.528C336.199 279.261 336.674 279.128 337.207 279.128C338.007 279.128 338.594 279.368 338.967 279.848C339.34 280.328 339.527 281.069 339.527 282.072V287H338.823V282.168C338.823 281.347 338.684 280.744 338.407 280.36C338.14 279.965 337.692 279.768 337.063 279.768C336.604 279.768 336.188 279.891 335.815 280.136C335.442 280.371 335.02 280.728 334.551 281.208V287H333.847ZM344.875 290.696C343.904 290.696 343.136 290.504 342.571 290.12C342.005 289.736 341.723 289.219 341.723 288.568C341.723 288.227 341.824 287.896 342.027 287.576C342.229 287.256 342.507 286.968 342.859 286.712V286.648C342.667 286.531 342.507 286.371 342.379 286.168C342.251 285.965 342.187 285.715 342.187 285.416C342.187 285.075 342.283 284.787 342.475 284.552C342.667 284.307 342.848 284.125 343.019 284.008V283.944C342.773 283.731 342.549 283.443 342.347 283.08C342.155 282.717 342.059 282.301 342.059 281.832C342.059 281.437 342.128 281.075 342.267 280.744C342.405 280.413 342.597 280.131 342.843 279.896C343.088 279.651 343.376 279.464 343.707 279.336C344.037 279.197 344.389 279.128 344.763 279.128C344.976 279.128 345.168 279.149 345.339 279.192C345.509 279.224 345.653 279.267 345.771 279.32H348.379V279.912H346.587C346.832 280.125 347.035 280.403 347.195 280.744C347.355 281.075 347.435 281.443 347.435 281.848C347.435 282.243 347.365 282.605 347.227 282.936C347.088 283.267 346.896 283.555 346.651 283.8C346.416 284.035 346.133 284.221 345.803 284.36C345.483 284.488 345.136 284.552 344.763 284.552C344.549 284.552 344.325 284.525 344.091 284.472C343.867 284.419 343.664 284.339 343.483 284.232C343.312 284.371 343.163 284.525 343.035 284.696C342.917 284.867 342.859 285.08 342.859 285.336C342.859 285.613 342.96 285.853 343.163 286.056C343.365 286.248 343.755 286.344 344.331 286.344H345.979C346.843 286.344 347.477 286.488 347.883 286.776C348.299 287.053 348.507 287.496 348.507 288.104C348.507 288.435 348.421 288.755 348.251 289.064C348.08 289.384 347.835 289.661 347.515 289.896C347.205 290.141 346.827 290.333 346.379 290.472C345.931 290.621 345.429 290.696 344.875 290.696ZM344.763 283.992C345.029 283.992 345.28 283.944 345.515 283.848C345.76 283.741 345.973 283.592 346.155 283.4C346.336 283.208 346.48 282.979 346.587 282.712C346.693 282.445 346.747 282.152 346.747 281.832C346.747 281.512 346.693 281.219 346.587 280.952C346.48 280.685 346.336 280.461 346.155 280.28C345.984 280.099 345.776 279.96 345.531 279.864C345.285 279.757 345.029 279.704 344.763 279.704C344.485 279.704 344.224 279.757 343.979 279.864C343.744 279.96 343.536 280.099 343.355 280.28C343.173 280.461 343.029 280.685 342.923 280.952C342.816 281.208 342.763 281.501 342.763 281.832C342.763 282.152 342.816 282.445 342.923 282.712C343.029 282.979 343.173 283.208 343.355 283.4C343.547 283.592 343.76 283.741 343.995 283.848C344.24 283.944 344.496 283.992 344.763 283.992ZM344.955 290.12C345.381 290.12 345.771 290.061 346.123 289.944C346.475 289.837 346.773 289.693 347.019 289.512C347.264 289.331 347.451 289.123 347.579 288.888C347.717 288.664 347.787 288.429 347.787 288.184C347.787 287.757 347.632 287.453 347.323 287.272C347.024 287.101 346.587 287.016 346.011 287.016H344.363C344.277 287.016 344.144 287.011 343.963 287C343.792 286.979 343.605 286.941 343.403 286.888C343.051 287.133 342.795 287.395 342.635 287.672C342.475 287.949 342.395 288.227 342.395 288.504C342.395 288.984 342.613 289.373 343.051 289.672C343.499 289.971 344.133 290.12 344.955 290.12Z" fill="white"/>
<path d="M132.305 182.49C131.423 180.967 129.855 180.037 128.112 180.001C128.037 180 127.963 180 127.888 180.001C126.145 180.037 124.577 180.967 123.695 182.49C122.792 184.047 122.768 185.917 123.629 187.493L127.235 194.094C127.236 194.097 127.238 194.099 127.24 194.102C127.398 194.378 127.683 194.543 128 194.543C128.317 194.543 128.602 194.378 128.76 194.102C128.762 194.099 128.764 194.097 128.765 194.094L132.372 187.493C133.232 185.917 133.208 184.047 132.305 182.49ZM128 186.59C126.872 186.59 125.955 185.672 125.955 184.545C125.955 183.417 126.872 182.5 128 182.5C129.128 182.5 130.045 183.417 130.045 184.545C130.045 185.672 129.128 186.59 128 186.59Z" fill="white"/>
<path d="M45.472 245.376C44.816 245.376 44.28 245.392 43.864 245.424C43.448 245.456 43.112 245.528 42.856 245.64C42.6 245.736 42.4 245.888 42.256 246.096C42.112 246.288 41.968 246.544 41.824 246.864L41.416 247.8H40.456L42.232 241.08H43.24C43.208 241.224 43.176 241.352 43.144 241.464C43.128 241.576 43.12 241.68 43.12 241.776C43.12 242.064 43.256 242.264 43.528 242.376C43.8 242.472 44.304 242.52 45.04 242.52H52.672V243.48C52.064 244.728 51.536 245.816 51.088 246.744C50.656 247.656 50.272 248.48 49.936 249.216C49.6 249.952 49.296 250.648 49.024 251.304C48.752 251.944 48.48 252.624 48.208 253.344C47.952 254.048 47.672 254.824 47.368 255.672C47.064 256.52 46.72 257.52 46.336 258.672C46.016 259.6 45.664 260.264 45.28 260.664C44.896 261.048 44.424 261.24 43.864 261.24C43.384 261.24 43.008 261.112 42.736 260.856C42.464 260.584 42.328 260.208 42.328 259.728C42.328 259.52 42.352 259.304 42.4 259.08C42.464 258.84 42.584 258.536 42.76 258.168C42.952 257.784 43.224 257.296 43.576 256.704C43.928 256.096 44.392 255.312 44.968 254.352C45.688 253.168 46.28 252.184 46.744 251.4C47.224 250.6 47.64 249.888 47.992 249.264C48.344 248.624 48.672 248.016 48.976 247.44C49.28 246.848 49.632 246.16 50.032 245.376H45.472ZM67.471 254.784C67.471 255.68 67.287 256.52 66.919 257.304C66.567 258.088 66.079 258.776 65.455 259.368C64.831 259.944 64.095 260.4 63.247 260.736C62.415 261.072 61.519 261.24 60.559 261.24C59.519 261.24 58.567 261.04 57.703 260.64C56.839 260.224 56.095 259.648 55.471 258.912C54.863 258.176 54.383 257.304 54.031 256.296C53.695 255.272 53.527 254.144 53.527 252.912C53.527 251.456 53.751 250.088 54.199 248.808C54.647 247.512 55.255 246.384 56.023 245.424C56.791 244.448 57.687 243.68 58.711 243.12C59.735 242.56 60.831 242.28 61.999 242.28C62.639 242.28 63.239 242.352 63.799 242.496C64.359 242.624 64.839 242.808 65.239 243.048C65.655 243.288 65.983 243.576 66.223 243.912C66.463 244.232 66.583 244.584 66.583 244.968C66.583 245.432 66.439 245.8 66.151 246.072C65.863 246.328 65.479 246.456 64.999 246.456C64.663 246.456 64.399 246.384 64.207 246.24C64.015 246.096 63.847 245.92 63.703 245.712C63.575 245.504 63.455 245.28 63.343 245.04C63.231 244.784 63.087 244.552 62.911 244.344C62.751 244.136 62.543 243.96 62.287 243.816C62.031 243.672 61.687 243.6 61.255 243.6C60.727 243.6 60.239 243.776 59.791 244.128C59.343 244.464 58.951 244.936 58.615 245.544C58.295 246.136 58.039 246.84 57.847 247.656C57.655 248.472 57.559 249.36 57.559 250.32L57.631 250.368C58.143 249.792 58.679 249.368 59.239 249.096C59.815 248.824 60.487 248.688 61.255 248.688C62.135 248.688 62.951 248.848 63.703 249.168C64.471 249.472 65.127 249.896 65.671 250.44C66.231 250.984 66.671 251.632 66.991 252.384C67.311 253.12 67.471 253.92 67.471 254.784ZM57.511 254.208C57.511 256.096 57.775 257.52 58.303 258.48C58.847 259.44 59.631 259.92 60.655 259.92C61.663 259.92 62.407 259.512 62.887 258.696C63.367 257.88 63.607 256.608 63.607 254.88C63.607 253.312 63.375 252.128 62.911 251.328C62.463 250.512 61.799 250.104 60.919 250.104C60.215 250.104 59.599 250.328 59.071 250.776C58.543 251.224 58.023 251.936 57.511 252.912V254.208Z" fill="white"/>
<path d="M170.848 249.552L170.896 249.624C171.168 249.336 171.544 249.104 172.024 248.928C172.52 248.736 173.024 248.64 173.536 248.64C174.352 248.64 175.104 248.792 175.792 249.096C176.48 249.384 177.08 249.784 177.592 250.296C178.104 250.808 178.504 251.424 178.792 252.144C179.08 252.848 179.224 253.608 179.224 254.424C179.224 255.384 179.024 256.28 178.624 257.112C178.224 257.928 177.664 258.648 176.944 259.272C176.24 259.88 175.408 260.36 174.448 260.712C173.504 261.064 172.48 261.24 171.376 261.24C170.624 261.24 169.936 261.16 169.312 261C168.688 260.824 168.144 260.592 167.68 260.304C167.232 260.016 166.88 259.672 166.624 259.272C166.368 258.856 166.24 258.408 166.24 257.928C166.24 257.416 166.36 257.024 166.6 256.752C166.856 256.464 167.216 256.32 167.68 256.32C168.032 256.32 168.296 256.408 168.472 256.584C168.648 256.76 168.784 256.984 168.88 257.256C168.976 257.528 169.064 257.824 169.144 258.144C169.24 258.448 169.368 258.736 169.528 259.008C169.688 259.28 169.912 259.504 170.2 259.68C170.504 259.856 170.92 259.944 171.448 259.944C172.072 259.944 172.624 259.8 173.104 259.512C173.6 259.224 174.016 258.816 174.352 258.288C174.688 257.76 174.944 257.12 175.12 256.368C175.296 255.616 175.384 254.784 175.384 253.872C175.384 252.544 175.208 251.576 174.856 250.968C174.504 250.344 173.904 250.032 173.056 250.032C172.352 250.032 171.768 250.208 171.304 250.56C170.856 250.896 170.496 251.44 170.224 252.192C170.096 252.56 169.952 252.808 169.792 252.936C169.648 253.048 169.464 253.104 169.24 253.104C168.792 253.104 168.568 252.896 168.568 252.48C168.568 252.416 168.584 252.32 168.616 252.192L171.304 242.28C171.752 242.424 172.248 242.536 172.792 242.616C173.336 242.68 173.984 242.712 174.736 242.712C175.632 242.712 176.4 242.672 177.04 242.592C177.696 242.512 178.208 242.4 178.576 242.256L178.72 242.28C178.496 243.272 178 244.04 177.232 244.584C176.464 245.112 175.488 245.376 174.304 245.376H171.976L170.848 249.552ZM195.369 254.784C195.369 255.68 195.185 256.52 194.817 257.304C194.465 258.088 193.977 258.776 193.353 259.368C192.729 259.944 191.993 260.4 191.145 260.736C190.313 261.072 189.417 261.24 188.457 261.24C187.417 261.24 186.465 261.04 185.601 260.64C184.737 260.224 183.993 259.648 183.369 258.912C182.761 258.176 182.281 257.304 181.929 256.296C181.593 255.272 181.425 254.144 181.425 252.912C181.425 251.456 181.649 250.088 182.097 248.808C182.545 247.512 183.153 246.384 183.921 245.424C184.689 244.448 185.585 243.68 186.609 243.12C187.633 242.56 188.729 242.28 189.897 242.28C190.537 242.28 191.137 242.352 191.697 242.496C192.257 242.624 192.737 242.808 193.137 243.048C193.553 243.288 193.881 243.576 194.121 243.912C194.361 244.232 194.481 244.584 194.481 244.968C194.481 245.432 194.337 245.8 194.049 246.072C193.761 246.328 193.377 246.456 192.897 246.456C192.561 246.456 192.297 246.384 192.105 246.24C191.913 246.096 191.745 245.92 191.601 245.712C191.473 245.504 191.353 245.28 191.241 245.04C191.129 244.784 190.985 244.552 190.809 244.344C190.649 244.136 190.441 243.96 190.185 243.816C189.929 243.672 189.585 243.6 189.153 243.6C188.625 243.6 188.137 243.776 187.689 244.128C187.241 244.464 186.849 244.936 186.513 245.544C186.193 246.136 185.937 246.84 185.745 247.656C185.553 248.472 185.457 249.36 185.457 250.32L185.529 250.368C186.041 249.792 186.577 249.368 187.137 249.096C187.713 248.824 188.385 248.688 189.153 248.688C190.033 248.688 190.849 248.848 191.601 249.168C192.369 249.472 193.025 249.896 193.569 250.44C194.129 250.984 194.569 251.632 194.889 252.384C195.209 253.12 195.369 253.92 195.369 254.784ZM185.409 254.208C185.409 256.096 185.673 257.52 186.201 258.48C186.745 259.44 187.529 259.92 188.553 259.92C189.561 259.92 190.305 259.512 190.785 258.696C191.265 257.88 191.505 256.608 191.505 254.88C191.505 253.312 191.273 252.128 190.809 251.328C190.361 250.512 189.697 250.104 188.817 250.104C188.113 250.104 187.497 250.328 186.969 250.776C186.441 251.224 185.921 251.936 185.409 252.912V254.208ZM201.917 245.376C201.261 245.376 200.725 245.392 200.309 245.424C199.893 245.456 199.557 245.528 199.301 245.64C199.045 245.736 198.845 245.888 198.701 246.096C198.557 246.288 198.413 246.544 198.269 246.864L197.861 247.8H196.901L198.677 241.08H199.685C199.653 241.224 199.621 241.352 199.589 241.464C199.573 241.576 199.565 241.68 199.565 241.776C199.565 242.064 199.701 242.264 199.973 242.376C200.245 242.472 200.749 242.52 201.485 242.52H209.117V243.48C208.509 244.728 207.981 245.816 207.533 246.744C207.101 247.656 206.717 248.48 206.381 249.216C206.045 249.952 205.741 250.648 205.469 251.304C205.197 251.944 204.925 252.624 204.653 253.344C204.397 254.048 204.117 254.824 203.813 255.672C203.509 256.52 203.165 257.52 202.781 258.672C202.461 259.6 202.109 260.264 201.725 260.664C201.341 261.048 200.869 261.24 200.309 261.24C199.829 261.24 199.453 261.112 199.181 260.856C198.909 260.584 198.773 260.208 198.773 259.728C198.773 259.52 198.797 259.304 198.845 259.08C198.909 258.84 199.029 258.536 199.205 258.168C199.397 257.784 199.669 257.296 200.021 256.704C200.373 256.096 200.837 255.312 201.413 254.352C202.133 253.168 202.725 252.184 203.189 251.4C203.669 250.6 204.085 249.888 204.437 249.264C204.789 248.624 205.117 248.016 205.421 247.44C205.725 246.848 206.077 246.16 206.477 245.376H201.917Z" fill="white"/>
<path d="M295.192 254.568L303.952 242.28H306.232V254.496C306.808 254.48 307.28 254.44 307.648 254.376C308.016 254.296 308.304 254.176 308.512 254.016C308.72 253.84 308.864 253.608 308.944 253.32C309.024 253.032 309.064 252.656 309.064 252.192H309.952V258.024H309.064C309.064 257.592 309.024 257.24 308.944 256.968C308.864 256.696 308.72 256.488 308.512 256.344C308.304 256.184 308.016 256.08 307.648 256.032C307.28 255.968 306.808 255.928 306.232 255.912V256.656C306.232 257.216 306.256 257.704 306.304 258.12C306.368 258.536 306.48 258.888 306.64 259.176C306.8 259.448 307.024 259.656 307.312 259.8C307.616 259.944 308 260.024 308.464 260.04V261H300.232V260.04C300.792 260.024 301.24 259.944 301.576 259.8C301.928 259.64 302.192 259.424 302.368 259.152C302.56 258.88 302.688 258.552 302.752 258.168C302.816 257.784 302.848 257.336 302.848 256.824V256.008H295.192V254.568ZM302.848 246.72H302.752L297.232 254.496H302.848V246.72ZM312.018 248.736C312.018 247.84 312.194 247 312.546 246.216C312.914 245.432 313.41 244.752 314.034 244.176C314.658 243.584 315.386 243.12 316.218 242.784C317.066 242.448 317.97 242.28 318.93 242.28C319.97 242.28 320.922 242.488 321.786 242.904C322.65 243.304 323.386 243.872 323.994 244.608C324.618 245.344 325.098 246.224 325.434 247.248C325.786 248.272 325.962 249.392 325.962 250.608C325.962 252.064 325.738 253.44 325.29 254.736C324.842 256.016 324.234 257.144 323.466 258.12C322.698 259.08 321.802 259.84 320.778 260.4C319.754 260.96 318.658 261.24 317.49 261.24C316.85 261.24 316.25 261.168 315.69 261.024C315.13 260.896 314.642 260.712 314.226 260.472C313.826 260.232 313.506 259.952 313.266 259.632C313.026 259.296 312.906 258.936 312.906 258.552C312.906 258.088 313.05 257.728 313.338 257.472C313.626 257.2 314.01 257.064 314.49 257.064C314.81 257.064 315.066 257.136 315.258 257.28C315.466 257.424 315.634 257.6 315.762 257.808C315.906 258.016 316.034 258.248 316.146 258.504C316.258 258.744 316.394 258.968 316.554 259.176C316.73 259.384 316.946 259.56 317.202 259.704C317.458 259.848 317.802 259.92 318.234 259.92C318.778 259.92 319.282 259.752 319.746 259.416C320.21 259.064 320.61 258.592 320.946 258C321.298 257.392 321.57 256.68 321.762 255.864C321.954 255.048 322.05 254.16 322.05 253.2L321.978 253.152C321.466 253.728 320.914 254.152 320.322 254.424C319.73 254.696 319.034 254.832 318.234 254.832C317.354 254.832 316.53 254.68 315.762 254.376C315.01 254.056 314.354 253.624 313.794 253.08C313.25 252.536 312.818 251.896 312.498 251.16C312.178 250.408 312.018 249.6 312.018 248.736ZM321.978 249.432C321.978 247.496 321.706 246.04 321.162 245.064C320.634 244.088 319.858 243.6 318.834 243.6C317.826 243.6 317.082 244.008 316.602 244.824C316.122 245.64 315.882 246.912 315.882 248.64C315.882 250.208 316.106 251.4 316.554 252.216C317.018 253.016 317.69 253.416 318.57 253.416C319.274 253.416 319.89 253.192 320.418 252.744C320.946 252.296 321.466 251.584 321.978 250.608V249.432ZM332.581 258.168H337.477C337.877 258.168 338.229 258.136 338.533 258.072C338.837 257.992 339.101 257.848 339.325 257.64C339.565 257.432 339.781 257.152 339.973 256.8C340.165 256.432 340.349 255.968 340.525 255.408H341.581L340.621 261H328.045V259.896C329.949 258.264 331.509 256.856 332.725 255.672C333.941 254.472 334.893 253.408 335.581 252.48C336.285 251.536 336.765 250.672 337.021 249.888C337.293 249.088 337.429 248.264 337.429 247.416C337.429 246.248 337.165 245.328 336.637 244.656C336.109 243.984 335.389 243.648 334.477 243.648C334.045 243.648 333.637 243.728 333.253 243.888C332.885 244.032 332.565 244.24 332.293 244.512C332.037 244.784 331.829 245.112 331.669 245.496C331.525 245.88 331.453 246.296 331.453 246.744C331.453 247.544 331.653 248.176 332.053 248.64C332.469 249.104 333.029 249.336 333.733 249.336C333.653 249.8 333.429 250.168 333.061 250.44C332.709 250.712 332.277 250.848 331.765 250.848C331.269 250.848 330.805 250.76 330.373 250.584C329.957 250.408 329.589 250.16 329.269 249.84C328.965 249.52 328.725 249.144 328.549 248.712C328.373 248.264 328.285 247.776 328.285 247.248C328.285 246.528 328.445 245.872 328.765 245.28C329.101 244.672 329.565 244.144 330.157 243.696C330.749 243.248 331.445 242.904 332.245 242.664C333.061 242.408 333.941 242.28 334.885 242.28C335.829 242.28 336.693 242.408 337.477 242.664C338.261 242.92 338.933 243.28 339.493 243.744C340.069 244.192 340.509 244.736 340.813 245.376C341.133 246 341.293 246.696 341.293 247.464C341.293 248.424 341.069 249.36 340.621 250.272C340.189 251.184 339.581 252.072 338.797 252.936C338.029 253.8 337.109 254.656 336.037 255.504C334.981 256.352 333.821 257.2 332.557 258.048L332.581 258.168Z" fill="white"/>
</svg>
