<svg width="44" height="35" viewBox="0 0 44 35" fill="none" xmlns="http://www.w3.org/2000/svg">
<path d="M38.519 6.08696H33.9538L31.4334 2.28261C30.4823 0.855978 28.8179 0 27.106 0H16.644C14.9321 0 13.2677 0.855978 12.3166 2.28261L9.7962 6.08696H5.23098C2.33016 6.08696 0 8.41712 0 11.3179V29.769C0 32.6698 2.33016 35 5.23098 35H38.519C41.4198 35 43.75 32.6698 43.75 29.769V11.3179C43.75 8.41712 41.4198 6.08696 38.519 6.08696ZM21.875 30.7201C15.3601 30.7201 10.0815 25.4416 10.0815 18.9266C10.0815 12.4117 15.3601 7.18071 21.875 7.18071C28.3899 7.18071 33.6685 12.4592 33.6685 18.9742C33.6685 25.4416 28.3899 30.7201 21.875 30.7201ZM37.8533 13.4579C37.8057 13.4579 37.7582 13.4579 37.663 13.4579H35.7609C34.9049 13.4103 34.2391 12.697 34.2867 11.841C34.3342 11.0326 34.9524 10.4144 35.7609 10.3668H37.663C38.519 10.3193 39.2323 10.9851 39.2799 11.841C39.3274 12.697 38.7092 13.4103 37.8533 13.4579Z" fill="white"/>
<path d="M21.875 12.4117C18.2609 12.4117 15.3125 15.3601 15.3125 18.9742C15.3125 22.5883 18.2609 25.4891 21.875 25.4891C25.4891 25.4891 28.4375 22.5408 28.4375 18.9266C28.4375 15.3125 25.4891 12.4117 21.875 12.4117Z" fill="white"/>
</svg>
