<?xml version="1.0"?>
<svg xmlns="http://www.w3.org/2000/svg" xmlns:xlink="http://www.w3.org/1999/xlink" xmlns:svgjs="http://svgjs.com/svgjs" version="1.1" width="512" height="512" x="0" y="0" viewBox="0 0 512 512" style="enable-background:new 0 0 512 512" xml:space="preserve" class=""><g><g xmlns="http://www.w3.org/2000/svg"><path d="m196 241h-45v-45c0-8.284-6.716-15-15-15s-15 6.716-15 15v45h-45c-8.284 0-15 6.716-15 15s6.716 15 15 15h45v45c0 8.284 6.716 15 15 15s15-6.716 15-15v-45h45c8.284 0 15-6.716 15-15s-6.716-15-15-15z" fill="#ffffff" data-original="#000000" style="" class=""/><path d="m301 256c0 8.284 6.716 15 15 15h121c8.284 0 15-6.716 15-15s-6.716-15-15-15h-121c-8.284 0-15 6.716-15 15z" fill="#ffffff" data-original="#000000" style="" class=""/><path d="m256 0c-140.959 0-256 115.05-256 256 0 140.959 115.05 256 256 256 140.959 0 256-115.05 256-256 0-140.959-115.05-256-256-256zm-226 256c0-119.575 93.351-217.742 211-225.49v450.98c-117.649-7.748-211-105.915-211-225.49zm241 225.49v-450.98c117.649 7.748 211 105.915 211 225.49s-93.351 217.742-211 225.49z" fill="#ffffff" data-original="#000000" style="" class=""/></g></g></svg>
