<svg width="30" height="35" viewBox="0 0 30 35" fill="none" xmlns="http://www.w3.org/2000/svg">
<path d="M10.2304 0V2.91966H13.15V4.37946C14.1719 4.2335 15.0478 4.2335 16.0697 4.37946V2.91966H18.9894V0H10.2304Z" fill="#9FCCEB"/>
<path fill-rule="evenodd" clip-rule="evenodd" d="M25.5585 8.61296L24.5366 9.63481C29.646 14.3063 30.6679 21.8973 27.0184 27.8826C22.9308 34.8897 13.88 37.0795 7.01879 32.846C0.157611 28.6125 -2.03205 19.8535 2.05542 12.8464C6.1429 5.83925 15.1938 3.64952 22.2009 7.88303L23.5148 6.56919L22.3469 5.40138L24.3907 3.3576L28.7701 7.73707L26.7264 9.78084L25.5585 8.61296ZM4.39111 20.2915C4.39111 25.9848 8.91653 30.5103 14.6098 30.5103C20.3031 30.5103 24.8286 25.9848 24.8286 20.2915C24.8286 12.5242 18.0161 10.2426 14.6098 10.0728C8.91653 10.0728 4.39111 14.5982 4.39111 20.2915Z" fill="#9FCCEB"/>
<path d="M14.446 26.216C13.51 26.216 12.718 26.066 12.07 25.766C11.422 25.454 10.87 25.07 10.414 24.614L11.602 22.94C11.95 23.252 12.322 23.522 12.718 23.75C13.126 23.966 13.576 24.074 14.068 24.074C14.656 24.074 15.124 23.924 15.472 23.624C15.82 23.324 15.994 22.88 15.994 22.292C15.994 21.716 15.826 21.278 15.49 20.978C15.166 20.678 14.734 20.528 14.194 20.528C14.026 20.528 13.876 20.54 13.744 20.564C13.612 20.576 13.48 20.606 13.348 20.654C13.228 20.702 13.096 20.762 12.952 20.834C12.82 20.906 12.67 20.996 12.502 21.104L11.314 20.348L11.638 14.57H18.118V16.802H13.924L13.726 18.944C13.942 18.848 14.146 18.782 14.338 18.746C14.542 18.698 14.764 18.674 15.004 18.674C15.496 18.674 15.958 18.746 16.39 18.89C16.834 19.034 17.224 19.25 17.56 19.538C17.896 19.826 18.16 20.192 18.352 20.636C18.544 21.08 18.64 21.608 18.64 22.22C18.64 22.856 18.526 23.42 18.298 23.912C18.07 24.404 17.764 24.824 17.38 25.172C16.996 25.508 16.546 25.766 16.03 25.946C15.526 26.126 14.998 26.216 14.446 26.216Z" fill="#9FCCEB"/>
</svg>
