<svg width="253" height="304" viewBox="0 0 253 304" fill="none" xmlns="http://www.w3.org/2000/svg">
<path d="M88.6615 0V25.3032H113.965V37.9546C122.821 36.6896 130.412 36.6896 139.268 37.9546V25.3032H164.571V0H88.6615Z" fill="white"/>
<path fill-rule="evenodd" clip-rule="evenodd" d="M221.502 74.6442L212.647 83.5C256.927 123.985 265.783 189.773 234.154 241.644C198.73 302.372 120.291 321.349 60.8283 284.659C1.36593 247.97 -17.6108 172.06 17.8133 111.333C53.2374 50.6059 131.677 31.6286 192.404 68.3182L203.791 56.9318L193.669 46.811L211.382 29.0987L249.336 67.0533L231.624 84.7656L221.502 74.6442ZM38.0555 175.857C38.0555 225.197 77.2751 264.417 126.616 264.417C175.957 264.417 215.177 225.197 215.176 175.856C215.176 108.541 156.136 88.7676 126.616 87.2955C77.2751 87.2955 38.0555 126.516 38.0555 175.857Z" fill="white"/>
<path d="M124.568 218.728C117.08 218.728 110.744 217.528 105.56 215.128C100.376 212.632 95.96 209.56 92.312 205.912L101.816 192.52C104.6 195.016 107.576 197.176 110.744 199C114.008 200.728 117.608 201.592 121.544 201.592C126.248 201.592 129.992 200.392 132.776 197.992C135.56 195.592 136.952 192.04 136.952 187.336C136.952 182.728 135.608 179.224 132.92 176.824C130.328 174.424 126.872 173.224 122.552 173.224C121.208 173.224 120.008 173.32 118.952 173.512C117.896 173.608 116.84 173.848 115.784 174.232C114.824 174.616 113.768 175.096 112.616 175.672C111.56 176.248 110.36 176.968 109.016 177.832L99.512 171.784L102.104 125.56H153.944V143.416H120.392L118.808 160.552C120.536 159.784 122.168 159.256 123.704 158.968C125.336 158.584 127.112 158.392 129.032 158.392C132.968 158.392 136.664 158.968 140.12 160.12C143.672 161.272 146.792 163 149.48 165.304C152.168 167.608 154.28 170.536 155.816 174.088C157.352 177.64 158.12 181.864 158.12 186.76C158.12 191.848 157.208 196.36 155.384 200.296C153.56 204.232 151.112 207.592 148.04 210.376C144.968 213.064 141.368 215.128 137.24 216.568C133.208 218.008 128.984 218.728 124.568 218.728Z" fill="white"/>
</svg>
