<svg width="30" height="35" viewBox="0 0 30 35" fill="none" xmlns="http://www.w3.org/2000/svg">
<path d="M14.7732 16.8596C17.1528 16.8596 19.2134 16.0288 20.897 14.3898C22.5806 12.7511 23.4341 10.746 23.4341 8.42951C23.4341 6.11385 22.5806 4.10848 20.8967 2.4692C19.2128 0.830721 17.1525 0 14.7732 0C12.3933 0 10.3333 0.830721 8.64967 2.46947C6.96605 4.10821 6.1123 6.11359 6.1123 8.42951C6.1123 10.746 6.96605 12.7513 8.64995 14.3901C10.3338 16.0286 12.3941 16.8596 14.7732 16.8596Z" fill="white"/>
<path d="M29.9273 26.9131C29.8787 26.2311 29.7805 25.4871 29.636 24.7015C29.49 23.9101 29.3021 23.1619 29.0771 22.478C28.8448 21.7712 28.5287 21.0732 28.1381 20.4043C27.7326 19.71 27.2563 19.1055 26.7219 18.608C26.1631 18.0876 25.4789 17.6691 24.6877 17.3639C23.8993 17.0603 23.0255 16.9065 22.0908 16.9065C21.7238 16.9065 21.3688 17.0531 20.6832 17.4876C20.2613 17.7554 19.7677 18.0651 19.2169 18.4077C18.7458 18.6999 18.1077 18.9736 17.3195 19.2214C16.5506 19.4636 15.7698 19.5864 14.9992 19.5864C14.2286 19.5864 13.4481 19.4636 12.6783 19.2214C11.8909 18.9738 11.2528 18.7001 10.7823 18.408C10.2367 18.0686 9.74285 17.7589 9.31461 17.4873C8.62986 17.0528 8.27459 16.9062 7.90753 16.9062C6.97258 16.9062 6.09909 17.0603 5.31092 17.3642C4.52027 17.6689 3.8358 18.0873 3.27642 18.6083C2.74229 19.106 2.26576 19.7103 1.86084 20.4043C1.47045 21.0732 1.15442 21.7709 0.921777 22.4783C0.697094 23.1621 0.509172 23.9101 0.363224 24.7015C0.218648 25.4861 0.120435 26.2303 0.0718767 26.9139C0.0241418 27.5836 0 28.2786 0 28.9806C0 30.8076 0.596686 32.2867 1.77332 33.3775C2.93542 34.4539 4.47309 34.9999 6.34298 34.9999H23.657C25.5269 34.9999 27.064 34.4541 28.2264 33.3775C29.4033 32.2875 30 30.8082 30 28.9804C29.9997 28.2752 29.9753 27.5795 29.9273 26.9131Z" fill="white"/>
</svg>
